<svg width="1902" height="709" viewBox="0 0 1902 709" fill="none" xmlns="http://www.w3.org/2000/svg">
<path fill-rule="evenodd" clip-rule="evenodd" d="M1930 108.098L1849.58 83.2771C1769.17 58.4565 1608.33 9.67119 1447.5 1.11236C1286.67 -6.59059 1125.83 25.933 965 91.836C804.167 157.739 643.333 256.166 482.5 297.248C321.667 338.33 160.833 322.069 80.4166 313.51L-0.00012207 304.951V354.592H80.4166C160.833 354.592 321.667 354.592 482.5 354.592C643.333 354.592 804.167 354.592 965 354.592C1125.83 354.592 1286.67 354.592 1447.5 354.592C1608.33 354.592 1769.17 354.592 1849.58 354.592H1930V108.098Z" fill="url(#paint0_linear_140_2894)" fill-opacity="0.13"/>
<path fill-rule="evenodd" clip-rule="evenodd" d="M-1.1099e-05 600.83L80.4167 625.651C160.833 650.471 321.667 699.257 482.5 707.815C643.333 715.518 804.167 682.995 965 617.092C1125.83 551.189 1286.67 452.762 1447.5 411.68C1608.33 370.597 1769.17 386.859 1849.58 395.418L1930 403.977L1930 354.336L1849.58 354.336C1769.17 354.336 1608.33 354.336 1447.5 354.336C1286.67 354.336 1125.83 354.336 965 354.336C804.167 354.336 643.333 354.336 482.5 354.336C321.667 354.336 160.833 354.336 80.4166 354.336L-3.64079e-05 354.336L-1.1099e-05 600.83Z" fill="url(#paint1_linear_140_2894)" fill-opacity="0.13"/>
<defs>
<linearGradient id="paint0_linear_140_2894" x1="1828.64" y1="130.716" x2="1127.71" y2="598.432" gradientUnits="userSpaceOnUse">
<stop stop-color="#7ED1CD"/>
<stop offset="1" stop-color="#75CAD6"/>
</linearGradient>
<linearGradient id="paint1_linear_140_2894" x1="101.358" y1="578.212" x2="802.292" y2="110.496" gradientUnits="userSpaceOnUse">
<stop stop-color="#7ED1CD"/>
<stop offset="1" stop-color="#75CAD6"/>
</linearGradient>
</defs>
</svg>
