<svg width="186" height="56" viewBox="0 0 186 56" fill="none" xmlns="http://www.w3.org/2000/svg">
<g clip-path="url(#clip0_140_3082)">
<path fill-rule="evenodd" clip-rule="evenodd" d="M114.926 43.7606C104.18 51.672 88.6042 55.893 75.1939 55.893C56.3904 55.893 39.4624 48.9464 26.6558 37.393C25.6496 36.4845 26.5511 35.2463 27.7586 35.9538C41.5794 43.9858 58.6684 48.8178 76.3208 48.8178C88.2259 48.8178 101.322 46.3576 113.364 41.2522C115.183 40.4803 116.705 42.4421 114.926 43.7606Z" fill="#FF9900"/>
<path fill-rule="evenodd" clip-rule="evenodd" d="M119.393 38.6553C118.025 36.9025 110.314 37.8271 106.852 38.2372C105.798 38.3658 105.637 37.4493 106.587 36.79C112.728 32.4725 122.806 33.7187 123.982 35.1659C125.157 36.6211 123.676 46.7113 117.904 51.5273C117.019 52.2669 116.174 51.873 116.568 50.8921C117.864 47.66 120.77 40.416 119.393 38.6553Z" fill="#FF9900"/>
<path fill-rule="evenodd" clip-rule="evenodd" d="M107.094 6.31045V2.11358C107.094 1.47843 107.577 1.05231 108.156 1.05231H126.968C127.572 1.05231 128.055 1.48647 128.055 2.11358V5.70745C128.047 6.31045 127.539 7.09837 126.638 8.34456L116.89 22.2457C120.512 22.1573 124.336 22.6959 127.62 24.5451C128.36 24.9632 128.562 25.5742 128.618 26.1772V30.6555C128.618 31.2665 127.942 31.9821 127.234 31.6123C121.446 28.5812 113.759 28.2515 107.359 31.6444C106.707 31.9982 106.023 31.2907 106.023 30.6796V26.4265C106.023 25.7431 106.031 24.5773 106.715 23.5401L118.009 7.36369H108.18C107.577 7.36369 107.094 6.93757 107.094 6.31045Z" fill="black"/>
<path fill-rule="evenodd" clip-rule="evenodd" d="M38.4724 32.4966H32.7492C32.2019 32.4564 31.7672 32.0464 31.7269 31.5238V2.18593C31.7269 1.59901 32.2179 1.13269 32.8297 1.13269H38.1665C38.7219 1.15679 39.1646 1.58293 39.2049 2.11357V5.94864H39.3095C40.702 2.24221 43.3181 0.513611 46.8438 0.513611C50.4258 0.513611 52.6635 2.24221 54.2734 5.94864C55.6579 2.24221 58.8052 0.513611 62.1779 0.513611C64.5767 0.513611 67.2008 1.50253 68.8026 3.72156C70.6137 6.18983 70.2435 9.77566 70.2435 12.9193L70.2354 31.4354C70.2354 32.0223 69.7444 32.4966 69.1327 32.4966H63.4175C62.846 32.4564 62.3872 31.9982 62.3872 31.4354V15.886C62.3872 14.6479 62.4999 11.5605 62.2262 10.3867C61.7996 8.41691 60.5198 7.86215 58.8616 7.86215C57.4771 7.86215 56.0282 8.78675 55.4406 10.2661C54.8529 11.7455 54.9093 14.2218 54.9093 15.886V31.4354C54.9093 32.0223 54.4183 32.4966 53.8065 32.4966H48.0914C47.5119 32.4564 47.0611 31.9982 47.0611 31.4354L47.0531 15.886C47.0531 12.6138 47.5924 7.79783 43.5274 7.79783C39.4141 7.79783 39.5751 12.4932 39.5751 15.886V31.4354C39.5751 32.0223 39.0841 32.4966 38.4724 32.4966Z" fill="black"/>
<path fill-rule="evenodd" clip-rule="evenodd" d="M144.25 0.513611C152.742 0.513611 157.338 7.79783 157.338 17.0599C157.338 26.0084 152.259 33.1077 144.25 33.1077C135.911 33.1077 131.371 25.8235 131.371 16.7463C131.371 7.61291 135.967 0.513611 144.25 0.513611ZM144.298 6.5034C140.08 6.5034 139.815 12.2439 139.815 15.8217C139.815 19.4076 139.758 27.0616 144.25 27.0616C148.685 27.0616 148.895 20.8869 148.895 17.1242C148.895 14.6479 148.79 11.6892 148.041 9.34151C147.397 7.29936 146.117 6.5034 144.298 6.5034Z" fill="black"/>
<path fill-rule="evenodd" clip-rule="evenodd" d="M168.35 32.4966H162.651C162.079 32.4564 161.621 31.9982 161.621 31.4354L161.613 2.08945C161.661 1.55077 162.136 1.13269 162.715 1.13269H168.02C168.519 1.15679 168.93 1.49449 169.042 1.95277V6.43907H169.147C170.749 2.42713 172.995 0.513611 176.947 0.513611C179.515 0.513611 182.018 1.43821 183.628 3.9708C185.125 6.31847 185.125 10.2661 185.125 13.1042V31.572C185.061 32.0866 184.586 32.4966 184.022 32.4966H178.283C177.76 32.4564 177.325 32.0705 177.269 31.572V15.6368C177.269 12.4289 177.639 7.73351 173.687 7.73351C172.294 7.73351 171.014 8.66615 170.378 10.0812C169.573 11.8741 169.469 13.659 169.469 15.6368V31.4354C169.461 32.0223 168.962 32.4966 168.35 32.4966Z" fill="black"/>
<path fill-rule="evenodd" clip-rule="evenodd" d="M92.0977 18.483C92.0977 20.7101 92.154 22.5673 91.0271 24.5451C90.1175 26.1531 88.6686 27.142 87.0668 27.142C84.8693 27.142 83.5814 25.4697 83.5814 23.0015C83.5814 18.1292 87.9522 17.2448 92.0977 17.2448V18.483ZM97.8691 32.4163C97.4908 32.7539 96.9435 32.7781 96.5168 32.5529C94.6172 30.9771 94.271 30.2455 93.2327 28.742C90.0934 31.9419 87.8637 32.8987 83.7987 32.8987C78.9771 32.8987 75.2341 29.9319 75.2341 23.9904C75.2341 19.3513 77.7456 16.1916 81.3356 14.6479C84.4427 13.2811 88.7813 13.0399 92.0977 12.662V11.9224C92.0977 10.5636 92.2023 8.95561 91.3974 7.78178C90.7051 6.72854 89.3689 6.29438 88.1857 6.29438C86.0043 6.29438 84.0644 7.41194 83.5894 9.72745C83.4928 10.242 83.1145 10.7485 82.5913 10.7727L77.0453 10.1777C76.5784 10.0732 76.0552 9.69529 76.192 8.97974C77.4638 2.25832 83.5492 0.232239 88.9906 0.232239C91.7757 0.232239 95.4141 0.971918 97.6116 3.07839C100.397 5.6753 100.131 9.14053 100.131 12.9113V21.8196C100.131 24.4969 101.242 25.6707 102.288 27.1179C102.651 27.6325 102.731 28.2516 102.264 28.6375C101.097 29.6103 99.0202 31.4193 97.8772 32.4324L97.8691 32.4163Z" fill="black"/>
<path fill-rule="evenodd" clip-rule="evenodd" d="M17.0689 18.4829C17.0689 20.71 17.1253 22.5672 15.9984 24.5451C15.0888 26.1531 13.6479 27.142 12.038 27.142C9.84055 27.142 8.56069 25.4697 8.56069 23.0014C8.56069 18.1292 12.9315 17.2448 17.0689 17.2448V18.4829ZM22.8404 32.4162C22.4621 32.7539 21.9147 32.778 21.4881 32.5529C19.5884 30.9771 19.2503 30.2454 18.2039 28.7419C15.0646 31.9418 12.843 32.8986 8.76998 32.8986C3.95641 32.8986 0.205383 29.9319 0.205383 23.9903C0.205383 19.3512 2.72485 16.1915 6.30685 14.6479C9.41393 13.2811 13.7526 13.0399 17.0689 12.662V11.9223C17.0689 10.5635 17.1736 8.95555 16.3767 7.78172C15.6764 6.72848 14.3402 6.29432 13.165 6.29432C10.9836 6.29432 9.03561 7.41188 8.56069 9.72739C8.4641 10.242 8.08578 10.7485 7.57061 10.7726L2.01651 10.1776C1.54964 10.0731 1.03447 9.69523 1.16326 8.97968C2.44313 2.25826 8.52044 0.232178 13.9619 0.232178C16.747 0.232178 20.3853 0.971857 22.5828 3.07833C25.3679 5.67524 25.1023 9.14047 25.1023 12.9112V21.8195C25.1023 24.4968 26.2131 25.6707 27.2595 27.1179C27.6298 27.6324 27.7103 28.2515 27.2434 28.6374C26.0763 29.6103 23.9995 31.4193 22.8565 32.4323L22.8404 32.4162Z" fill="black"/>
</g>
<defs>
<clipPath id="clip0_140_3082">
<rect width="184.92" height="55.6608" fill="white" transform="translate(0.205383 0.232178)"/>
</clipPath>
</defs>
</svg>
