<svg width="276" height="47" viewBox="0 0 276 47" fill="none" xmlns="http://www.w3.org/2000/svg">
<path d="M108.5 5.0081C108.5 2.61668 110.425 0.794642 112.69 0.794642C114.955 0.794642 116.88 2.73055 116.88 5.0081C116.88 7.28564 114.955 9.22156 112.69 9.22156C110.312 9.22156 108.5 7.28564 108.5 5.0081Z" fill="#003479"/>
<path d="M174.633 33.0218C174.633 30.6304 176.558 28.8084 178.822 28.8084C181.087 28.8084 183.012 30.7443 183.012 33.0218C183.012 35.2994 181.087 37.2353 178.822 37.2353C176.444 37.2353 174.633 35.4133 174.633 33.0218Z" fill="#009FE3"/>
<path d="M39.7633 31.1998C36.1396 31.1998 33.6484 28.3529 33.6484 24.2533C33.6484 20.1537 36.1396 17.3068 39.7633 17.3068C43.387 17.3068 45.8783 20.1537 45.8783 24.2533C45.8783 28.4667 43.387 31.1998 39.7633 31.1998ZM39.7633 11.0435C32.1762 11.0435 26.6274 16.6235 26.6274 24.1394C26.6274 31.6553 32.1762 37.2353 39.7633 37.2353C47.4637 37.2353 53.0125 31.6553 53.0125 24.1394C53.0125 16.6235 47.3505 11.0435 39.7633 11.0435Z" fill="#003479"/>
<path d="M100.347 24.9365C100.007 24.3671 99.6675 23.9116 99.3278 23.57L99.1013 23.3423L99.3278 23.1145C99.6675 22.7729 100.007 22.3174 100.347 21.748L107.028 11.7268H98.8748L93.7789 19.5843C93.4392 20.0398 92.873 20.2676 92.0803 20.2676H90.9479V5.34965C90.9479 2.38884 89.1361 1.93333 87.0978 1.93333H83.7006V37.1214H90.9479V26.5308H91.6274C92.4201 26.5308 92.9863 26.6447 93.326 27.1002L97.2894 34.73C98.4218 36.7798 99.5542 37.1214 101.593 37.1214H107.141L102.951 30.2888L100.347 24.9365Z" fill="#003479"/>
<path d="M135.565 11.0435C131.828 11.0435 129.563 12.6378 128.204 14.1182L127.751 14.5737L127.638 14.0043C127.298 12.5239 125.94 11.7268 124.014 11.7268H120.73V37.1214H127.978V25.2782C127.978 24.1394 128.091 23.1145 128.431 22.2035C129.224 19.4704 131.488 17.7623 134.206 17.7623C136.471 17.7623 137.377 18.901 137.377 22.0896V33.1357C137.377 35.7549 138.623 37.0075 141.227 37.0075H144.624V20.837C144.511 14.4598 141.454 11.0435 135.565 11.0435Z" fill="#003479"/>
<path d="M112.803 11.6129H109.406V31.1998V37.0075H113.03H113.143H114.841H116.54V15.4847C116.54 12.8655 115.294 11.6129 112.803 11.6129Z" fill="#003479"/>
<path d="M67.96 31.1998C64.3363 31.1998 61.845 28.3529 61.845 24.2533C61.845 20.1537 64.3363 17.3068 67.96 17.3068C71.5837 17.3068 74.075 20.1537 74.075 24.2533C74.1882 28.4668 71.6969 31.1998 67.96 31.1998ZM67.96 11.0435C60.3729 11.0435 54.8241 16.6235 54.8241 24.1394C54.8241 31.6553 60.3729 37.3492 67.96 37.3492C75.6603 37.3492 81.2092 31.7692 81.2092 24.2533C81.2092 16.7374 75.6603 11.0435 67.96 11.0435Z" fill="#003479"/>
<path d="M222.3 31.1995C218.676 31.1995 216.185 28.3526 216.185 24.253C216.185 20.1534 218.676 17.3065 222.3 17.3065C225.923 17.3065 228.415 20.1534 228.415 24.253C228.415 28.4664 225.923 31.1995 222.3 31.1995ZM222.3 11.0432C214.713 11.0432 209.164 16.6232 209.164 24.1391C209.164 31.655 214.713 37.235 222.3 37.235C229.887 37.3489 235.549 31.8827 235.549 24.253C235.549 16.6232 229.887 11.0432 222.3 11.0432Z" fill="#009FE3"/>
<path d="M159.678 30.1745C155.715 30.1745 154.356 26.7582 154.356 23.4558C154.356 21.9754 154.696 17.4203 159.339 17.4203C161.604 17.4203 164.661 18.1035 164.661 23.6835C164.661 29.0358 161.943 30.1745 159.678 30.1745ZM168.398 11.4987C167.039 11.4987 166.02 12.0681 165.454 13.093L165.227 13.4346L164.887 13.093C163.755 12.0681 161.604 10.9293 158.206 10.9293C151.525 10.9293 146.995 16.0538 146.995 23.5697C146.995 31.0856 151.638 36.4378 158.433 36.4378C160.698 36.4378 162.509 35.8684 163.982 34.8435L164.548 34.388V35.0713C164.548 38.4876 162.396 40.3096 158.433 40.3096C156.508 40.3096 154.809 39.8541 153.563 39.3986C152.091 38.9431 151.185 39.2847 150.506 40.879L149.94 42.2455L149.147 44.2953L149.6 44.5231C152.091 45.8896 155.375 46.6867 158.433 46.6867C164.548 46.6867 171.682 43.4982 171.682 34.6158V11.2709L168.398 11.4987Z" fill="#003479"/>
<path d="M12.9179 30.9716H7.02937V23.9112C7.02937 22.4308 7.59555 21.6337 8.84119 21.4059H12.8046C15.6356 21.4059 17.4475 23.228 17.4475 26.1888C17.5608 29.1496 15.8622 30.9716 12.9179 30.9716ZM7.02937 11.9541V10.1321C7.02937 8.53779 7.70877 7.74065 9.1809 7.62677H12.1252C14.7297 7.62677 16.2018 9.22105 16.2018 11.7264C16.2018 13.6623 15.1827 16.0537 12.2384 16.0537H6.91609L7.02937 11.9541ZM20.3918 19.0145L19.3726 18.4451L20.2785 17.648C21.2977 16.7369 23.1096 14.5733 23.1096 11.0431C23.1096 5.4631 18.8064 1.93291 12.2384 1.93291H4.76456H3.85865C1.93355 2.04679 0.348145 3.64107 0.348145 5.57698V36.8932H3.85865H12.4649C19.8255 36.8932 24.5817 32.9075 24.5817 26.6443C24.4684 23.3418 22.9963 20.381 20.3918 19.0145Z" fill="#003479"/>
<path d="M267.597 11.157C264.652 11.157 261.708 12.5235 259.896 14.9149L259.33 15.5982L258.877 14.8011C257.518 12.4096 255.253 11.157 252.083 11.157C248.685 11.157 246.534 12.979 245.401 14.1178L244.722 14.9149L244.496 13.89C244.156 12.5235 242.91 11.7264 240.985 11.7264H237.927V37.0071H244.835V25.8471C244.835 24.8222 244.948 23.9112 245.175 22.8863C245.854 20.1533 247.666 17.3064 250.61 17.5341C252.536 17.7619 253.441 19.1284 253.441 21.9753V37.0071H260.349V25.8471C260.349 24.5945 260.462 23.6835 260.689 22.7725C261.255 20.1533 263.18 17.5341 266.011 17.5341C268.163 17.5341 268.955 18.7868 268.955 21.9753V33.2492C268.955 35.7545 270.088 36.8932 272.579 36.8932H275.863V20.7227C275.976 14.3455 273.259 11.157 267.597 11.157Z" fill="#009FE3"/>
<path d="M205.086 28.2387C205.086 28.2387 202.142 31.4272 198.179 31.4272C194.668 31.4272 191.045 29.2636 191.045 24.3668C191.045 20.1534 193.876 17.1926 197.839 17.1926C199.085 17.1926 200.557 17.6481 200.783 18.4452V18.5591C201.349 20.3811 202.935 20.3811 203.275 20.3811H207.012V17.0787C207.012 12.7514 201.463 11.1571 197.726 11.1571C189.799 11.1571 184.024 16.7371 184.024 24.3668C184.024 31.9966 189.686 37.5766 197.613 37.5766C204.407 37.5766 208.144 33.0215 208.144 33.0215L208.37 32.7938L205.426 27.7832L205.086 28.2387Z" fill="#009FE3"/>
</svg>
