<svg width="183" height="59" viewBox="0 0 183 59" fill="none" xmlns="http://www.w3.org/2000/svg">
<path d="M181.363 40.2305C181.089 40.2305 180.815 40.4127 180.632 40.8685C178.804 46.1546 176.245 49.3446 174.143 49.3446C172.954 49.3446 172.497 47.9775 172.497 45.9724C172.497 40.7773 175.605 29.7492 177.159 24.6453C177.342 24.0073 177.433 23.4605 177.433 23.0048C177.433 21.5465 176.61 20.8174 174.6 20.8174C172.497 20.8174 170.121 21.6377 167.927 25.5567C167.196 22.0934 164.82 20.6351 161.529 20.6351C157.782 20.6351 154.126 23.0959 151.109 27.015C148.093 30.9341 144.528 32.21 141.878 31.572C143.797 26.9238 144.528 23.3693 144.528 20.8174C144.528 16.716 142.518 14.2552 139.227 14.2552C134.291 14.2552 131.458 18.9946 131.458 23.9162C131.458 27.7441 133.195 31.6632 137.033 33.5772C133.834 40.7773 129.173 47.3395 127.345 47.3395C125.06 47.3395 124.329 36.1291 124.511 28.1087C124.603 23.5516 124.968 23.2782 124.968 21.9111C124.968 21.0908 124.42 20.544 122.318 20.544C117.474 20.544 115.92 24.6453 115.737 29.3847C115.646 31.2075 115.371 32.9392 114.914 34.6708C112.903 41.871 108.699 47.4306 105.957 47.4306C104.677 47.4306 104.312 46.1546 104.312 44.5141C104.312 39.319 107.237 32.7569 107.237 27.1973C107.237 23.0959 105.409 20.544 102.027 20.544C98.005 20.544 92.7952 25.2833 87.7681 34.124C89.4133 27.3796 90.0531 20.8174 85.2088 20.8174C84.112 20.8174 83.1066 21.0908 82.1926 21.6377C81.5528 21.9111 81.1871 22.5491 81.1871 23.2782C81.6442 30.4784 75.3375 48.98 69.3964 48.98C68.2995 48.98 67.7511 47.7952 67.7511 45.8812C67.7511 40.6862 70.8588 29.6581 72.4126 24.5542C72.5954 23.9162 72.6868 23.3693 72.6868 22.8225C72.6868 21.4554 71.8642 20.7262 69.8534 20.7262C67.7511 20.7262 65.3747 21.5465 63.181 25.4656C62.3584 22.0022 60.0734 20.544 56.7829 20.544C51.3903 20.544 45.4491 26.1947 42.7985 33.5772C39.2338 43.4204 32.1959 52.9902 22.5988 52.9902C13.9156 52.9902 9.34554 45.7901 9.34554 34.3974C9.34554 17.9009 21.5019 4.50312 30.4593 4.50312C34.7552 4.50312 36.766 7.23735 36.766 11.4298C36.766 16.5338 33.9326 18.8123 33.9326 20.8174C33.9326 21.3642 34.3896 22.0022 35.395 22.0022C39.3252 22.0022 43.8953 17.4452 43.8953 11.1564C43.8953 4.86768 38.9596 0.401764 30.0023 0.401764C15.1038 0.401764 0.205383 15.2578 0.205383 34.3974C0.205383 49.618 7.70031 58.7321 20.6793 58.7321C29.5453 58.7321 37.3144 51.8965 41.4275 43.8761C41.8845 50.5294 44.9007 53.9928 49.5622 53.9928C53.6753 53.9928 56.9657 51.532 59.525 47.2483C60.5304 51.7143 63.0896 53.9016 66.4715 53.9016C70.3104 53.9016 73.6008 51.4408 76.6171 46.9749C76.6171 50.5294 77.3483 53.9016 80.4559 53.9016C81.9184 53.9016 83.655 53.5371 83.9292 52.2611C87.2197 38.8633 95.263 27.8353 97.7308 27.8353C98.462 27.8353 98.6448 28.5644 98.6448 29.3847C98.6448 33.0303 96.0856 40.5039 96.0856 45.2432C96.0856 50.4383 98.2792 53.8105 102.849 53.8105C107.876 53.8105 112.995 47.704 116.377 38.6811C117.474 47.066 119.759 53.8105 123.323 53.8105C127.711 53.8105 135.662 44.5141 140.415 34.6708C142.243 34.9443 145.077 34.8531 147.819 32.9392C146.631 35.8557 145.991 39.0456 145.991 42.1444C145.991 51.2585 150.378 53.8105 154.126 53.8105C158.239 53.8105 161.529 51.3497 164.088 47.0661C164.911 50.894 167.105 53.7194 171.035 53.7194C177.159 53.7194 182.551 47.4306 182.551 42.2356C182.643 41.1419 182.003 40.2305 181.363 40.2305ZM53.4011 48.8889C50.9332 48.8889 49.9278 46.4281 49.9278 42.6913C49.9278 36.2202 54.4065 25.3744 59.068 25.3744C61.0788 25.3744 61.9014 27.7441 61.9014 30.7518C61.9014 37.3139 57.697 48.8889 53.4011 48.8889ZM138.679 29.5669C137.216 27.8353 136.668 25.3744 136.668 23.2782C136.668 20.6351 137.673 18.4477 138.77 18.4477C139.867 18.4477 140.324 19.5414 140.324 21.182C140.233 23.7339 139.319 27.653 138.679 29.5669ZM157.964 48.8889C155.497 48.8889 154.491 45.9724 154.491 42.6913C154.491 36.4025 158.97 25.3744 163.631 25.3744C165.642 25.3744 166.373 27.7441 166.373 30.7518C166.465 37.3139 162.352 48.8889 157.964 48.8889Z" fill="url(#paint0_linear_140_3215)"/>
<path d="M181.363 40.2305C181.089 40.2305 180.815 40.4127 180.632 40.8685C178.804 46.1546 176.245 49.3446 174.143 49.3446C172.954 49.3446 172.497 47.9775 172.497 45.9724C172.497 40.7773 175.605 29.7492 177.159 24.6453C177.342 24.0073 177.433 23.4605 177.433 23.0048C177.433 21.5465 176.61 20.8174 174.6 20.8174C172.497 20.8174 170.121 21.6377 167.927 25.5567C167.196 22.0934 164.82 20.6351 161.529 20.6351C157.782 20.6351 154.126 23.0959 151.109 27.015C148.093 30.9341 144.528 32.21 141.878 31.572C143.797 26.9238 144.528 23.3693 144.528 20.8174C144.528 16.716 142.518 14.2552 139.227 14.2552C134.291 14.2552 131.458 18.9946 131.458 23.9162C131.458 27.7441 133.195 31.6632 137.033 33.5772C133.834 40.7773 129.173 47.3395 127.345 47.3395C125.06 47.3395 124.329 36.1291 124.511 28.1087C124.603 23.5516 124.968 23.2782 124.968 21.9111C124.968 21.0908 124.42 20.544 122.318 20.544C117.474 20.544 115.92 24.6453 115.737 29.3847C115.646 31.2075 115.371 32.9392 114.914 34.6708C112.903 41.871 108.699 47.4306 105.957 47.4306C104.677 47.4306 104.312 46.1546 104.312 44.5141C104.312 39.319 107.237 32.7569 107.237 27.1973C107.237 23.0959 105.409 20.544 102.027 20.544C98.005 20.544 92.7952 25.2833 87.7681 34.124C89.4133 27.3796 90.0531 20.8174 85.2088 20.8174C84.112 20.8174 83.1066 21.0908 82.1926 21.6377C81.5528 21.9111 81.1871 22.5491 81.1871 23.2782C81.6442 30.4784 75.3375 48.98 69.3964 48.98C68.2995 48.98 67.7511 47.7952 67.7511 45.8812C67.7511 40.6862 70.8588 29.6581 72.4126 24.5542C72.5954 23.9162 72.6868 23.3693 72.6868 22.8225C72.6868 21.4554 71.8642 20.7262 69.8534 20.7262C67.7511 20.7262 65.3747 21.5465 63.181 25.4656C62.3584 22.0022 60.0734 20.544 56.7829 20.544C51.3903 20.544 45.4491 26.1947 42.7985 33.5772C39.2338 43.4204 32.1959 52.9902 22.5988 52.9902C13.9156 52.9902 9.34554 45.7901 9.34554 34.3974C9.34554 17.9009 21.5019 4.50312 30.4593 4.50312C34.7552 4.50312 36.766 7.23735 36.766 11.4298C36.766 16.5338 33.9326 18.8123 33.9326 20.8174C33.9326 21.3642 34.3896 22.0022 35.395 22.0022C39.3252 22.0022 43.8953 17.4452 43.8953 11.1564C43.8953 4.86768 38.9596 0.401764 30.0023 0.401764C15.1038 0.401764 0.205383 15.2578 0.205383 34.3974C0.205383 49.618 7.70031 58.7321 20.6793 58.7321C29.5453 58.7321 37.3144 51.8965 41.4275 43.8761C41.8845 50.5294 44.9007 53.9928 49.5622 53.9928C53.6753 53.9928 56.9657 51.532 59.525 47.2483C60.5304 51.7143 63.0896 53.9016 66.4715 53.9016C70.3104 53.9016 73.6008 51.4408 76.6171 46.9749C76.6171 50.5294 77.3483 53.9016 80.4559 53.9016C81.9184 53.9016 83.655 53.5371 83.9292 52.2611C87.2197 38.8633 95.263 27.8353 97.7308 27.8353C98.462 27.8353 98.6448 28.5644 98.6448 29.3847C98.6448 33.0303 96.0856 40.5039 96.0856 45.2432C96.0856 50.4383 98.2792 53.8105 102.849 53.8105C107.876 53.8105 112.995 47.704 116.377 38.6811C117.474 47.066 119.759 53.8105 123.323 53.8105C127.711 53.8105 135.662 44.5141 140.415 34.6708C142.243 34.9443 145.077 34.8531 147.819 32.9392C146.631 35.8557 145.991 39.0456 145.991 42.1444C145.991 51.2585 150.378 53.8105 154.126 53.8105C158.239 53.8105 161.529 51.3497 164.088 47.0661C164.911 50.894 167.105 53.7194 171.035 53.7194C177.159 53.7194 182.551 47.4306 182.551 42.2356C182.643 41.1419 182.003 40.2305 181.363 40.2305ZM53.4011 48.8889C50.9332 48.8889 49.9278 46.4281 49.9278 42.6913C49.9278 36.2202 54.4065 25.3744 59.068 25.3744C61.0788 25.3744 61.9014 27.7441 61.9014 30.7518C61.9014 37.3139 57.697 48.8889 53.4011 48.8889ZM138.679 29.5669C137.216 27.8353 136.668 25.3744 136.668 23.2782C136.668 20.6351 137.673 18.4477 138.77 18.4477C139.867 18.4477 140.324 19.5414 140.324 21.182C140.233 23.7339 139.319 27.653 138.679 29.5669ZM157.964 48.8889C155.497 48.8889 154.491 45.9724 154.491 42.6913C154.491 36.4025 158.97 25.3744 163.631 25.3744C165.642 25.3744 166.373 27.7441 166.373 30.7518C166.465 37.3139 162.352 48.8889 157.964 48.8889Z" fill="url(#paint1_radial_140_3215)"/>
<path d="M181.363 40.2305C181.089 40.2305 180.815 40.4127 180.632 40.8685C178.804 46.1546 176.245 49.3446 174.143 49.3446C172.954 49.3446 172.497 47.9775 172.497 45.9724C172.497 40.7773 175.605 29.7492 177.159 24.6453C177.342 24.0073 177.433 23.4605 177.433 23.0048C177.433 21.5465 176.61 20.8174 174.6 20.8174C172.497 20.8174 170.121 21.6377 167.927 25.5567C167.196 22.0934 164.82 20.6351 161.529 20.6351C157.782 20.6351 154.126 23.0959 151.109 27.015C148.093 30.9341 144.528 32.21 141.878 31.572C143.797 26.9238 144.528 23.3693 144.528 20.8174C144.528 16.716 142.518 14.2552 139.227 14.2552C134.291 14.2552 131.458 18.9946 131.458 23.9162C131.458 27.7441 133.195 31.6632 137.033 33.5772C133.834 40.7773 129.173 47.3395 127.345 47.3395C125.06 47.3395 124.329 36.1291 124.511 28.1087C124.603 23.5516 124.968 23.2782 124.968 21.9111C124.968 21.0908 124.42 20.544 122.318 20.544C117.474 20.544 115.92 24.6453 115.737 29.3847C115.646 31.2075 115.371 32.9392 114.914 34.6708C112.903 41.871 108.699 47.4306 105.957 47.4306C104.677 47.4306 104.312 46.1546 104.312 44.5141C104.312 39.319 107.237 32.7569 107.237 27.1973C107.237 23.0959 105.409 20.544 102.027 20.544C98.005 20.544 92.7952 25.2833 87.7681 34.124C89.4133 27.3796 90.0531 20.8174 85.2088 20.8174C84.112 20.8174 83.1066 21.0908 82.1926 21.6377C81.5528 21.9111 81.1871 22.5491 81.1871 23.2782C81.6442 30.4784 75.3375 48.98 69.3964 48.98C68.2995 48.98 67.7511 47.7952 67.7511 45.8812C67.7511 40.6862 70.8588 29.6581 72.4126 24.5542C72.5954 23.9162 72.6868 23.3693 72.6868 22.8225C72.6868 21.4554 71.8642 20.7262 69.8534 20.7262C67.7511 20.7262 65.3747 21.5465 63.181 25.4656C62.3584 22.0022 60.0734 20.544 56.7829 20.544C51.3903 20.544 45.4491 26.1947 42.7985 33.5772C39.2338 43.4204 32.1959 52.9902 22.5988 52.9902C13.9156 52.9902 9.34554 45.7901 9.34554 34.3974C9.34554 17.9009 21.5019 4.50312 30.4593 4.50312C34.7552 4.50312 36.766 7.23735 36.766 11.4298C36.766 16.5338 33.9326 18.8123 33.9326 20.8174C33.9326 21.3642 34.3896 22.0022 35.395 22.0022C39.3252 22.0022 43.8953 17.4452 43.8953 11.1564C43.8953 4.86768 38.9596 0.401764 30.0023 0.401764C15.1038 0.401764 0.205383 15.2578 0.205383 34.3974C0.205383 49.618 7.70031 58.7321 20.6793 58.7321C29.5453 58.7321 37.3144 51.8965 41.4275 43.8761C41.8845 50.5294 44.9007 53.9928 49.5622 53.9928C53.6753 53.9928 56.9657 51.532 59.525 47.2483C60.5304 51.7143 63.0896 53.9016 66.4715 53.9016C70.3104 53.9016 73.6008 51.4408 76.6171 46.9749C76.6171 50.5294 77.3483 53.9016 80.4559 53.9016C81.9184 53.9016 83.655 53.5371 83.9292 52.2611C87.2197 38.8633 95.263 27.8353 97.7308 27.8353C98.462 27.8353 98.6448 28.5644 98.6448 29.3847C98.6448 33.0303 96.0856 40.5039 96.0856 45.2432C96.0856 50.4383 98.2792 53.8105 102.849 53.8105C107.876 53.8105 112.995 47.704 116.377 38.6811C117.474 47.066 119.759 53.8105 123.323 53.8105C127.711 53.8105 135.662 44.5141 140.415 34.6708C142.243 34.9443 145.077 34.8531 147.819 32.9392C146.631 35.8557 145.991 39.0456 145.991 42.1444C145.991 51.2585 150.378 53.8105 154.126 53.8105C158.239 53.8105 161.529 51.3497 164.088 47.0661C164.911 50.894 167.105 53.7194 171.035 53.7194C177.159 53.7194 182.551 47.4306 182.551 42.2356C182.643 41.1419 182.003 40.2305 181.363 40.2305ZM53.4011 48.8889C50.9332 48.8889 49.9278 46.4281 49.9278 42.6913C49.9278 36.2202 54.4065 25.3744 59.068 25.3744C61.0788 25.3744 61.9014 27.7441 61.9014 30.7518C61.9014 37.3139 57.697 48.8889 53.4011 48.8889ZM138.679 29.5669C137.216 27.8353 136.668 25.3744 136.668 23.2782C136.668 20.6351 137.673 18.4477 138.77 18.4477C139.867 18.4477 140.324 19.5414 140.324 21.182C140.233 23.7339 139.319 27.653 138.679 29.5669ZM157.964 48.8889C155.497 48.8889 154.491 45.9724 154.491 42.6913C154.491 36.4025 158.97 25.3744 163.631 25.3744C165.642 25.3744 166.373 27.7441 166.373 30.7518C166.465 37.3139 162.352 48.8889 157.964 48.8889Z" fill="url(#paint2_radial_140_3215)"/>
<path d="M181.363 40.2305C181.089 40.2305 180.815 40.4127 180.632 40.8685C178.804 46.1546 176.245 49.3446 174.143 49.3446C172.954 49.3446 172.497 47.9775 172.497 45.9724C172.497 40.7773 175.605 29.7492 177.159 24.6453C177.342 24.0073 177.433 23.4605 177.433 23.0048C177.433 21.5465 176.61 20.8174 174.6 20.8174C172.497 20.8174 170.121 21.6377 167.927 25.5567C167.196 22.0934 164.82 20.6351 161.529 20.6351C157.782 20.6351 154.126 23.0959 151.109 27.015C148.093 30.9341 144.528 32.21 141.878 31.572C143.797 26.9238 144.528 23.3693 144.528 20.8174C144.528 16.716 142.518 14.2552 139.227 14.2552C134.291 14.2552 131.458 18.9946 131.458 23.9162C131.458 27.7441 133.195 31.6632 137.033 33.5772C133.834 40.7773 129.173 47.3395 127.345 47.3395C125.06 47.3395 124.329 36.1291 124.511 28.1087C124.603 23.5516 124.968 23.2782 124.968 21.9111C124.968 21.0908 124.42 20.544 122.318 20.544C117.474 20.544 115.92 24.6453 115.737 29.3847C115.646 31.2075 115.371 32.9392 114.914 34.6708C112.903 41.871 108.699 47.4306 105.957 47.4306C104.677 47.4306 104.312 46.1546 104.312 44.5141C104.312 39.319 107.237 32.7569 107.237 27.1973C107.237 23.0959 105.409 20.544 102.027 20.544C98.005 20.544 92.7952 25.2833 87.7681 34.124C89.4133 27.3796 90.0531 20.8174 85.2088 20.8174C84.112 20.8174 83.1066 21.0908 82.1926 21.6377C81.5528 21.9111 81.1871 22.5491 81.1871 23.2782C81.6442 30.4784 75.3375 48.98 69.3964 48.98C68.2995 48.98 67.7511 47.7952 67.7511 45.8812C67.7511 40.6862 70.8588 29.6581 72.4126 24.5542C72.5954 23.9162 72.6868 23.3693 72.6868 22.8225C72.6868 21.4554 71.8642 20.7262 69.8534 20.7262C67.7511 20.7262 65.3747 21.5465 63.181 25.4656C62.3584 22.0022 60.0734 20.544 56.7829 20.544C51.3903 20.544 45.4491 26.1947 42.7985 33.5772C39.2338 43.4204 32.1959 52.9902 22.5988 52.9902C13.9156 52.9902 9.34554 45.7901 9.34554 34.3974C9.34554 17.9009 21.5019 4.50312 30.4593 4.50312C34.7552 4.50312 36.766 7.23735 36.766 11.4298C36.766 16.5338 33.9326 18.8123 33.9326 20.8174C33.9326 21.3642 34.3896 22.0022 35.395 22.0022C39.3252 22.0022 43.8953 17.4452 43.8953 11.1564C43.8953 4.86768 38.9596 0.401764 30.0023 0.401764C15.1038 0.401764 0.205383 15.2578 0.205383 34.3974C0.205383 49.618 7.70031 58.7321 20.6793 58.7321C29.5453 58.7321 37.3144 51.8965 41.4275 43.8761C41.8845 50.5294 44.9007 53.9928 49.5622 53.9928C53.6753 53.9928 56.9657 51.532 59.525 47.2483C60.5304 51.7143 63.0896 53.9016 66.4715 53.9016C70.3104 53.9016 73.6008 51.4408 76.6171 46.9749C76.6171 50.5294 77.3483 53.9016 80.4559 53.9016C81.9184 53.9016 83.655 53.5371 83.9292 52.2611C87.2197 38.8633 95.263 27.8353 97.7308 27.8353C98.462 27.8353 98.6448 28.5644 98.6448 29.3847C98.6448 33.0303 96.0856 40.5039 96.0856 45.2432C96.0856 50.4383 98.2792 53.8105 102.849 53.8105C107.876 53.8105 112.995 47.704 116.377 38.6811C117.474 47.066 119.759 53.8105 123.323 53.8105C127.711 53.8105 135.662 44.5141 140.415 34.6708C142.243 34.9443 145.077 34.8531 147.819 32.9392C146.631 35.8557 145.991 39.0456 145.991 42.1444C145.991 51.2585 150.378 53.8105 154.126 53.8105C158.239 53.8105 161.529 51.3497 164.088 47.0661C164.911 50.894 167.105 53.7194 171.035 53.7194C177.159 53.7194 182.551 47.4306 182.551 42.2356C182.643 41.1419 182.003 40.2305 181.363 40.2305ZM53.4011 48.8889C50.9332 48.8889 49.9278 46.4281 49.9278 42.6913C49.9278 36.2202 54.4065 25.3744 59.068 25.3744C61.0788 25.3744 61.9014 27.7441 61.9014 30.7518C61.9014 37.3139 57.697 48.8889 53.4011 48.8889ZM138.679 29.5669C137.216 27.8353 136.668 25.3744 136.668 23.2782C136.668 20.6351 137.673 18.4477 138.77 18.4477C139.867 18.4477 140.324 19.5414 140.324 21.182C140.233 23.7339 139.319 27.653 138.679 29.5669ZM157.964 48.8889C155.497 48.8889 154.491 45.9724 154.491 42.6913C154.491 36.4025 158.97 25.3744 163.631 25.3744C165.642 25.3744 166.373 27.7441 166.373 30.7518C166.465 37.3139 162.352 48.8889 157.964 48.8889Z" fill="url(#paint3_radial_140_3215)"/>
<path d="M181.363 40.2305C181.089 40.2305 180.815 40.4127 180.632 40.8685C178.804 46.1546 176.245 49.3446 174.143 49.3446C172.954 49.3446 172.497 47.9775 172.497 45.9724C172.497 40.7773 175.605 29.7492 177.159 24.6453C177.342 24.0073 177.433 23.4605 177.433 23.0048C177.433 21.5465 176.61 20.8174 174.6 20.8174C172.497 20.8174 170.121 21.6377 167.927 25.5567C167.196 22.0934 164.82 20.6351 161.529 20.6351C157.782 20.6351 154.126 23.0959 151.109 27.015C148.093 30.9341 144.528 32.21 141.878 31.572C143.797 26.9238 144.528 23.3693 144.528 20.8174C144.528 16.716 142.518 14.2552 139.227 14.2552C134.291 14.2552 131.458 18.9946 131.458 23.9162C131.458 27.7441 133.195 31.6632 137.033 33.5772C133.834 40.7773 129.173 47.3395 127.345 47.3395C125.06 47.3395 124.329 36.1291 124.511 28.1087C124.603 23.5516 124.968 23.2782 124.968 21.9111C124.968 21.0908 124.42 20.544 122.318 20.544C117.474 20.544 115.92 24.6453 115.737 29.3847C115.646 31.2075 115.371 32.9392 114.914 34.6708C112.903 41.871 108.699 47.4306 105.957 47.4306C104.677 47.4306 104.312 46.1546 104.312 44.5141C104.312 39.319 107.237 32.7569 107.237 27.1973C107.237 23.0959 105.409 20.544 102.027 20.544C98.005 20.544 92.7952 25.2833 87.7681 34.124C89.4133 27.3796 90.0531 20.8174 85.2088 20.8174C84.112 20.8174 83.1066 21.0908 82.1926 21.6377C81.5528 21.9111 81.1871 22.5491 81.1871 23.2782C81.6442 30.4784 75.3375 48.98 69.3964 48.98C68.2995 48.98 67.7511 47.7952 67.7511 45.8812C67.7511 40.6862 70.8588 29.6581 72.4126 24.5542C72.5954 23.9162 72.6868 23.3693 72.6868 22.8225C72.6868 21.4554 71.8642 20.7262 69.8534 20.7262C67.7511 20.7262 65.3747 21.5465 63.181 25.4656C62.3584 22.0022 60.0734 20.544 56.7829 20.544C51.3903 20.544 45.4491 26.1947 42.7985 33.5772C39.2338 43.4204 32.1959 52.9902 22.5988 52.9902C13.9156 52.9902 9.34554 45.7901 9.34554 34.3974C9.34554 17.9009 21.5019 4.50312 30.4593 4.50312C34.7552 4.50312 36.766 7.23735 36.766 11.4298C36.766 16.5338 33.9326 18.8123 33.9326 20.8174C33.9326 21.3642 34.3896 22.0022 35.395 22.0022C39.3252 22.0022 43.8953 17.4452 43.8953 11.1564C43.8953 4.86768 38.9596 0.401764 30.0023 0.401764C15.1038 0.401764 0.205383 15.2578 0.205383 34.3974C0.205383 49.618 7.70031 58.7321 20.6793 58.7321C29.5453 58.7321 37.3144 51.8965 41.4275 43.8761C41.8845 50.5294 44.9007 53.9928 49.5622 53.9928C53.6753 53.9928 56.9657 51.532 59.525 47.2483C60.5304 51.7143 63.0896 53.9016 66.4715 53.9016C70.3104 53.9016 73.6008 51.4408 76.6171 46.9749C76.6171 50.5294 77.3483 53.9016 80.4559 53.9016C81.9184 53.9016 83.655 53.5371 83.9292 52.2611C87.2197 38.8633 95.263 27.8353 97.7308 27.8353C98.462 27.8353 98.6448 28.5644 98.6448 29.3847C98.6448 33.0303 96.0856 40.5039 96.0856 45.2432C96.0856 50.4383 98.2792 53.8105 102.849 53.8105C107.876 53.8105 112.995 47.704 116.377 38.6811C117.474 47.066 119.759 53.8105 123.323 53.8105C127.711 53.8105 135.662 44.5141 140.415 34.6708C142.243 34.9443 145.077 34.8531 147.819 32.9392C146.631 35.8557 145.991 39.0456 145.991 42.1444C145.991 51.2585 150.378 53.8105 154.126 53.8105C158.239 53.8105 161.529 51.3497 164.088 47.0661C164.911 50.894 167.105 53.7194 171.035 53.7194C177.159 53.7194 182.551 47.4306 182.551 42.2356C182.643 41.1419 182.003 40.2305 181.363 40.2305ZM53.4011 48.8889C50.9332 48.8889 49.9278 46.4281 49.9278 42.6913C49.9278 36.2202 54.4065 25.3744 59.068 25.3744C61.0788 25.3744 61.9014 27.7441 61.9014 30.7518C61.9014 37.3139 57.697 48.8889 53.4011 48.8889ZM138.679 29.5669C137.216 27.8353 136.668 25.3744 136.668 23.2782C136.668 20.6351 137.673 18.4477 138.77 18.4477C139.867 18.4477 140.324 19.5414 140.324 21.182C140.233 23.7339 139.319 27.653 138.679 29.5669ZM157.964 48.8889C155.497 48.8889 154.491 45.9724 154.491 42.6913C154.491 36.4025 158.97 25.3744 163.631 25.3744C165.642 25.3744 166.373 27.7441 166.373 30.7518C166.465 37.3139 162.352 48.8889 157.964 48.8889Z" fill="url(#paint4_radial_140_3215)"/>
<path d="M181.363 40.2305C181.089 40.2305 180.815 40.4127 180.632 40.8685C178.804 46.1546 176.245 49.3446 174.143 49.3446C172.954 49.3446 172.497 47.9775 172.497 45.9724C172.497 40.7773 175.605 29.7492 177.159 24.6453C177.342 24.0073 177.433 23.4605 177.433 23.0048C177.433 21.5465 176.61 20.8174 174.6 20.8174C172.497 20.8174 170.121 21.6377 167.927 25.5567C167.196 22.0934 164.82 20.6351 161.529 20.6351C157.782 20.6351 154.126 23.0959 151.109 27.015C148.093 30.9341 144.528 32.21 141.878 31.572C143.797 26.9238 144.528 23.3693 144.528 20.8174C144.528 16.716 142.518 14.2552 139.227 14.2552C134.291 14.2552 131.458 18.9946 131.458 23.9162C131.458 27.7441 133.195 31.6632 137.033 33.5772C133.834 40.7773 129.173 47.3395 127.345 47.3395C125.06 47.3395 124.329 36.1291 124.511 28.1087C124.603 23.5516 124.968 23.2782 124.968 21.9111C124.968 21.0908 124.42 20.544 122.318 20.544C117.474 20.544 115.92 24.6453 115.737 29.3847C115.646 31.2075 115.371 32.9392 114.914 34.6708C112.903 41.871 108.699 47.4306 105.957 47.4306C104.677 47.4306 104.312 46.1546 104.312 44.5141C104.312 39.319 107.237 32.7569 107.237 27.1973C107.237 23.0959 105.409 20.544 102.027 20.544C98.005 20.544 92.7952 25.2833 87.7681 34.124C89.4133 27.3796 90.0531 20.8174 85.2088 20.8174C84.112 20.8174 83.1066 21.0908 82.1926 21.6377C81.5528 21.9111 81.1871 22.5491 81.1871 23.2782C81.6442 30.4784 75.3375 48.98 69.3964 48.98C68.2995 48.98 67.7511 47.7952 67.7511 45.8812C67.7511 40.6862 70.8588 29.6581 72.4126 24.5542C72.5954 23.9162 72.6868 23.3693 72.6868 22.8225C72.6868 21.4554 71.8642 20.7262 69.8534 20.7262C67.7511 20.7262 65.3747 21.5465 63.181 25.4656C62.3584 22.0022 60.0734 20.544 56.7829 20.544C51.3903 20.544 45.4491 26.1947 42.7985 33.5772C39.2338 43.4204 32.1959 52.9902 22.5988 52.9902C13.9156 52.9902 9.34554 45.7901 9.34554 34.3974C9.34554 17.9009 21.5019 4.50312 30.4593 4.50312C34.7552 4.50312 36.766 7.23735 36.766 11.4298C36.766 16.5338 33.9326 18.8123 33.9326 20.8174C33.9326 21.3642 34.3896 22.0022 35.395 22.0022C39.3252 22.0022 43.8953 17.4452 43.8953 11.1564C43.8953 4.86768 38.9596 0.401764 30.0023 0.401764C15.1038 0.401764 0.205383 15.2578 0.205383 34.3974C0.205383 49.618 7.70031 58.7321 20.6793 58.7321C29.5453 58.7321 37.3144 51.8965 41.4275 43.8761C41.8845 50.5294 44.9007 53.9928 49.5622 53.9928C53.6753 53.9928 56.9657 51.532 59.525 47.2483C60.5304 51.7143 63.0896 53.9016 66.4715 53.9016C70.3104 53.9016 73.6008 51.4408 76.6171 46.9749C76.6171 50.5294 77.3483 53.9016 80.4559 53.9016C81.9184 53.9016 83.655 53.5371 83.9292 52.2611C87.2197 38.8633 95.263 27.8353 97.7308 27.8353C98.462 27.8353 98.6448 28.5644 98.6448 29.3847C98.6448 33.0303 96.0856 40.5039 96.0856 45.2432C96.0856 50.4383 98.2792 53.8105 102.849 53.8105C107.876 53.8105 112.995 47.704 116.377 38.6811C117.474 47.066 119.759 53.8105 123.323 53.8105C127.711 53.8105 135.662 44.5141 140.415 34.6708C142.243 34.9443 145.077 34.8531 147.819 32.9392C146.631 35.8557 145.991 39.0456 145.991 42.1444C145.991 51.2585 150.378 53.8105 154.126 53.8105C158.239 53.8105 161.529 51.3497 164.088 47.0661C164.911 50.894 167.105 53.7194 171.035 53.7194C177.159 53.7194 182.551 47.4306 182.551 42.2356C182.643 41.1419 182.003 40.2305 181.363 40.2305ZM53.4011 48.8889C50.9332 48.8889 49.9278 46.4281 49.9278 42.6913C49.9278 36.2202 54.4065 25.3744 59.068 25.3744C61.0788 25.3744 61.9014 27.7441 61.9014 30.7518C61.9014 37.3139 57.697 48.8889 53.4011 48.8889ZM138.679 29.5669C137.216 27.8353 136.668 25.3744 136.668 23.2782C136.668 20.6351 137.673 18.4477 138.77 18.4477C139.867 18.4477 140.324 19.5414 140.324 21.182C140.233 23.7339 139.319 27.653 138.679 29.5669ZM157.964 48.8889C155.497 48.8889 154.491 45.9724 154.491 42.6913C154.491 36.4025 158.97 25.3744 163.631 25.3744C165.642 25.3744 166.373 27.7441 166.373 30.7518C166.465 37.3139 162.352 48.8889 157.964 48.8889Z" fill="url(#paint5_radial_140_3215)"/>
<defs>
<linearGradient id="paint0_linear_140_3215" x1="180.624" y1="59.7396" x2="28.9103" y2="23.5315" gradientUnits="userSpaceOnUse">
<stop stop-color="#7D2AE7"/>
<stop offset="0.7708" stop-color="#7D2AE7"/>
<stop offset="1" stop-color="#7D2AE7" stop-opacity="0"/>
</linearGradient>
<radialGradient id="paint1_radial_140_3215" cx="0" cy="0" r="1" gradientUnits="userSpaceOnUse" gradientTransform="translate(93.6016 65.0582) rotate(-45.7252) scale(54.8702 36.4686)">
<stop stop-color="#6420FF"/>
<stop offset="1" stop-color="#6420FF" stop-opacity="0"/>
</radialGradient>
<radialGradient id="paint2_radial_140_3215" cx="0" cy="0" r="1" gradientUnits="userSpaceOnUse" gradientTransform="translate(4.57128 39.2501) rotate(5.07384) scale(106.943 84.9969)">
<stop offset="0.25" stop-color="#00C4CC"/>
<stop offset="1" stop-color="#00C4CC" stop-opacity="0"/>
</radialGradient>
<radialGradient id="paint3_radial_140_3215" cx="0" cy="0" r="1" gradientUnits="userSpaceOnUse" gradientTransform="translate(78.06 58.6886) rotate(-38.7695) scale(68.8397 47.0417)">
<stop stop-color="#6420FF"/>
<stop offset="1" stop-color="#6420FF" stop-opacity="0"/>
</radialGradient>
<radialGradient id="paint4_radial_140_3215" cx="0" cy="0" r="1" gradientUnits="userSpaceOnUse" gradientTransform="translate(10.4251 68.8683) rotate(-34.1913) scale(80.2682 54.8274)">
<stop stop-color="#6420FF"/>
<stop offset="1" stop-color="#6420FF" stop-opacity="0"/>
</radialGradient>
<radialGradient id="paint5_radial_140_3215" cx="0" cy="0" r="1" gradientUnits="userSpaceOnUse" gradientTransform="translate(17.7586 5.74661) rotate(12.4373) scale(158.769 194.221)">
<stop stop-color="#00C4CC"/>
<stop offset="1" stop-color="#00C4CC" stop-opacity="0"/>
</radialGradient>
</defs>
</svg>
