<svg width="10" height="10" viewBox="0 0 10 10" fill="none" xmlns="http://www.w3.org/2000/svg">
<path id="Vector" d="M9.76229 0.728234L8.86421 0.0962922C8.74497 0.0131368 8.59887 -0.0178826 8.45768 0.00997892C8.31649 0.0378404 8.19162 0.12233 8.11022 0.245076L3.71389 6.96315L1.69309 4.86929C1.59099 4.76466 1.45319 4.70598 1.30959 4.70598C1.16599 4.70598 1.02819 4.76466 0.926093 4.86929L0.159099 5.66557C0.108663 5.71776 0.0686507 5.77975 0.0413512 5.84797C0.0140516 5.9162 0 5.98933 0 6.06319C0 6.13705 0.0140516 6.21019 0.0413512 6.27841C0.0686507 6.34664 0.108663 6.40862 0.159099 6.46081L3.2656 9.68118C3.44021 9.86107 3.71339 10 3.95955 10C4.20571 10 4.45387 9.83929 4.61347 9.59875L9.90688 1.50844C9.98738 1.38505 10.0174 1.23363 9.99026 1.08736C9.96315 0.941103 9.88117 0.811951 9.76229 0.728234Z" fill="#00C4B0"/>
</svg>
