<svg width="289" height="42" viewBox="0 0 289 42" fill="none" xmlns="http://www.w3.org/2000/svg">
<path d="M286.697 29.6221C285.795 29.6221 285.08 28.9071 285.08 28.0067C285.08 27.1328 285.795 26.3913 286.697 26.3913C287.571 26.3913 288.313 27.1063 288.313 28.0067C288.313 28.9071 287.571 29.6221 286.697 29.6221ZM286.697 26.7091C285.981 26.7091 285.398 27.2917 285.398 28.0067C285.398 28.7217 285.981 29.3043 286.697 29.3043C287.412 29.3043 287.995 28.7217 287.995 28.0067C287.995 27.2917 287.412 26.7091 286.697 26.7091ZM287.518 28.8541H287.147L286.829 28.2451H286.405V28.8541H286.061V27.0799H286.909C287.28 27.0799 287.518 27.3182 287.518 27.6625C287.518 27.9273 287.359 28.1127 287.147 28.1921L287.518 28.8541ZM286.882 27.9273C287.015 27.9273 287.147 27.8478 287.147 27.6625C287.147 27.4506 287.041 27.3976 286.882 27.3976H286.352V27.9273H286.882Z" fill="#404041"/>
<path d="M118.255 26.2325H122.39V37.4874H129.573V41.0889H118.255V26.2325Z" fill="#404041"/>
<path d="M133.841 33.7004V33.6739C133.841 29.4103 137.287 25.9412 141.872 25.9412C146.458 25.9412 149.851 29.3573 149.851 33.6209V33.6739C149.851 37.9375 146.405 41.4066 141.819 41.4066C137.261 41.3801 133.841 37.964 133.841 33.7004ZM145.663 33.7004V33.6739C145.663 31.5288 144.125 29.6751 141.846 29.6751C139.593 29.6751 138.082 31.5024 138.082 33.6474V33.7004C138.082 35.8454 139.619 37.6991 141.872 37.6991C144.152 37.6727 145.663 35.8454 145.663 33.7004Z" fill="#404041"/>
<path d="M154.912 34.5744V26.2325H159.1V34.4949C159.1 36.6399 160.187 37.6463 161.83 37.6463C163.474 37.6463 164.56 36.6664 164.56 34.6008V26.2325H168.748V34.4684C168.748 39.2617 166.018 41.3537 161.777 41.3537C157.563 41.3802 154.912 39.2352 154.912 34.5744Z" fill="#404041"/>
<path d="M175.055 26.2325H180.807C186.108 26.2325 189.209 29.278 189.209 33.568V33.621C189.209 37.9111 186.082 41.0889 180.728 41.0889H175.082L175.055 26.2325ZM180.86 37.4344C183.325 37.4344 184.968 36.0838 184.968 33.674V33.621C184.968 31.2376 183.325 29.8606 180.86 29.8606H179.19V37.4079L180.86 37.4344Z" fill="#404041"/>
<path d="M195.175 26.2325H207.076V29.8606H199.283V32.3764H206.334V35.7925H199.283V41.0889H195.175V26.2325Z" fill="#404041"/>
<path d="M212.801 26.2325H216.909V37.4874H224.119V41.0889H212.801V26.2325Z" fill="#404041"/>
<path d="M234.879 26.1264H238.855L245.189 41.0887H240.763L239.676 38.4405H233.951L232.891 41.0887H228.571L234.879 26.1264ZM238.51 35.2362L236.867 31.0256L235.197 35.2362H238.51Z" fill="#404041"/>
<path d="M250.491 26.2325H257.515C259.794 26.2325 261.358 26.8151 262.365 27.8479C263.24 28.6954 263.691 29.8341 263.691 31.3171V31.37C263.691 33.6475 262.471 35.157 260.642 35.9249L264.194 41.1154H259.423L256.428 36.6135H254.626V41.1154H250.517L250.491 26.2325ZM257.329 33.3827C258.734 33.3827 259.529 32.6941 259.529 31.6349V31.5554C259.529 30.3902 258.681 29.8076 257.303 29.8076H254.599V33.3827H257.329Z" fill="#404041"/>
<path d="M269.629 26.2325H281.583V29.7546H273.711V31.9791H280.841V35.2364H273.711V37.5933H281.689V41.0889H269.629V26.2325Z" fill="#404041"/>
<path d="M109.243 35.4482C108.66 36.7458 107.441 37.6727 105.851 37.6727C103.598 37.6727 102.06 35.7924 102.06 33.6739V33.6209C102.06 31.4759 103.571 29.6486 105.824 29.6486C107.52 29.6486 108.819 30.6814 109.349 32.1115H113.696C113.007 28.5629 109.879 25.9412 105.851 25.9412C101.265 25.9412 97.8195 29.4103 97.8195 33.6739V33.7268C97.8195 37.9904 101.212 41.4066 105.798 41.4066C109.72 41.4066 112.795 38.8643 113.59 35.4747L109.243 35.4482Z" fill="#404041"/>
<path d="M83.2932 24.8287L71.9224 18.3142L69.961 17.4668L23.444 17.811V41.38L83.2932 41.4064V24.8287Z" fill="white"/>
<path d="M62.5922 39.235C63.1488 37.3283 62.9367 35.5805 62.0091 34.2829C61.1609 33.0912 59.7296 32.4026 58.0067 32.3232L25.3785 31.8995C25.1665 31.8995 24.981 31.7936 24.8749 31.6347C24.7689 31.4758 24.7424 31.2639 24.7954 31.0521C24.9014 30.7343 25.2195 30.4959 25.5641 30.4695L58.4838 30.0457C62.3801 29.8604 66.621 26.709 68.1053 22.8427L69.9872 17.9435C70.0667 17.7316 70.0932 17.5198 70.0402 17.3079C67.9198 7.72147 59.3585 0.57135 49.1274 0.57135C39.6915 0.57135 31.6868 6.66219 28.8242 15.1099C26.9689 13.7329 24.6099 12.9914 22.0654 13.2297C17.5329 13.6799 13.9017 17.3079 13.4511 21.8363C13.3451 23.0016 13.4246 24.1403 13.6896 25.1996C6.29462 25.4114 0.383911 31.4493 0.383911 38.8907C0.383911 39.5528 0.436922 40.2148 0.516438 40.8769C0.569449 41.1946 0.834502 41.433 1.15257 41.433H61.3729C61.7175 41.433 62.0356 41.1946 62.1416 40.8504L62.5922 39.235Z" fill="#F38020"/>
<path d="M72.9822 18.2877C72.6907 18.2877 72.3726 18.2877 72.081 18.3142C71.869 18.3142 71.6835 18.4731 71.6039 18.6849L70.3317 23.1074C69.7751 25.0141 69.9871 26.7619 70.9148 28.0596C71.763 29.2512 73.1943 29.9398 74.9171 30.0192L81.8616 30.4429C82.0736 30.4429 82.2591 30.5489 82.3652 30.7078C82.4712 30.8666 82.4977 31.105 82.4447 31.2904C82.3386 31.6081 82.0206 31.8465 81.676 31.873L74.44 32.2967C70.5172 32.482 66.3029 35.6334 64.8185 39.4998L64.2884 40.8503C64.1824 41.1152 64.368 41.38 64.6595 41.38H89.5216C89.8132 41.38 90.0782 41.1946 90.1578 40.9033C90.5818 39.3673 90.8204 37.7519 90.8204 36.0836C90.8204 26.2588 82.8423 18.2877 72.9822 18.2877Z" fill="#FAAE40"/>
</svg>
