<svg width="14" height="16" viewBox="0 0 14 16" fill="none" xmlns="http://www.w3.org/2000/svg">
<g id="Group">
<path id="Vector" d="M12.9989 6.33341C12.9909 4.88338 12.9269 4.09803 12.4142 3.58601C11.8289 3 10.8855 3 9.00014 3H7.00009C5.11471 3 4.17136 3 3.58601 3.58601C3 4.17136 3 5.11471 3 7.00009V10.3335C3 12.2189 3 13.1622 3.58601 13.7476C4.17136 14.3336 5.11471 14.3336 7.00009 14.3336H9.00014C10.8855 14.3336 11.8289 14.3336 12.4142 13.7476C13.0002 13.1622 13.0002 12.2189 13.0002 10.3335V9.66682" stroke="#373737" stroke-width="1.5" stroke-linecap="round"/>
<path id="Vector_2" d="M1 6.33346V10.3335C1 10.864 1.21072 11.3727 1.5858 11.7478C1.96088 12.1229 2.4696 12.3336 3.00005 12.3336M11.0002 3.00005C11.0002 2.4696 10.7895 1.96088 10.4144 1.5858C10.0393 1.21072 9.53063 1 9.00018 1H6.33346C3.8194 1 2.56204 1 1.78135 1.78135C1.34534 2.21669 1.15267 2.80004 1.068 3.66673" stroke="#373737" stroke-width="1.5" stroke-linecap="round"/>
</g>
</svg>
