<svg width="280" height="48" viewBox="0 0 280 48" fill="none" xmlns="http://www.w3.org/2000/svg">
<g clip-path="url(#clip0_140_3189)">
<path d="M24.7517 47.0701V38.0958C34.3839 38.0958 41.7933 28.6637 38.1349 18.6821C36.7457 14.9733 33.7819 11.9972 30.0309 10.6693C19.9357 7.05215 10.3961 14.3781 10.3961 23.9018H1.31958C1.31958 8.74627 16.1383 -3.0668 32.2074 1.8782C39.2464 4.0302 44.8034 9.57044 46.9799 16.4843C51.9812 32.4182 40.0799 47.0701 24.7517 47.0701Z" fill="#0080FF"/>
<path fill-rule="evenodd" clip-rule="evenodd" d="M24.7517 38.0958H15.7216V29.1673H24.7517V38.0958Z" fill="#0080FF"/>
<path fill-rule="evenodd" clip-rule="evenodd" d="M15.7216 44.9639H8.77527V38.0958H15.7216V44.9639Z" fill="#0080FF"/>
<path fill-rule="evenodd" clip-rule="evenodd" d="M8.77532 38.0958H2.94043V32.3724H8.77532V38.0958Z" fill="#0080FF"/>
<path d="M84.6751 14.1491C81.9892 12.3176 78.6549 11.3561 74.765 11.3561H66.2905V37.9584H74.765C78.6549 37.9584 81.9892 36.9969 84.6751 35.028C86.1569 34.0207 87.3146 32.5555 88.1019 30.7698C88.8891 28.9841 89.3059 26.8779 89.3059 24.497C89.3059 22.1619 88.8891 20.0557 88.1019 18.27C87.3146 16.5301 86.1569 15.1107 84.6751 14.1491ZM71.2456 15.889H73.9315C76.8952 15.889 79.3496 16.4843 81.2019 17.5832C83.2395 18.8194 84.3046 21.1545 84.3046 24.497C84.3046 27.9768 83.2395 30.4035 81.2019 31.7314C79.4422 32.876 76.9878 33.4713 73.9778 33.4713H71.2919V15.889H71.2456Z" fill="#0080FF"/>
<path d="M95.2334 11.0356C94.3999 11.0356 93.7052 11.3103 93.1495 11.8598C92.5938 12.4092 92.2697 13.096 92.2697 13.8744C92.2697 14.6986 92.5475 15.3854 93.1495 15.9348C93.7052 16.4843 94.3999 16.8048 95.2334 16.8048C96.067 16.8048 96.7616 16.5301 97.3173 15.9348C97.873 15.3854 98.1972 14.6528 98.1972 13.8744C98.1972 13.0502 97.9193 12.3634 97.3173 11.8598C96.7616 11.3103 96.0207 11.0356 95.2334 11.0356Z" fill="#0080FF"/>
<path d="M97.5488 19.2315H92.7791V38.0042H97.5488V19.2315Z" fill="#0080FF"/>
<path d="M114.915 20.7883C113.479 19.5062 111.858 18.7736 110.145 18.7736C107.505 18.7736 105.329 19.6894 103.615 21.4293C101.902 23.1692 101.068 25.4585 101.068 28.16C101.068 30.8156 101.902 33.0592 103.615 34.8907C105.329 36.6306 107.505 37.5463 110.145 37.5463C111.997 37.5463 113.572 37.0427 114.868 36.0354V36.4932C114.868 38.05 114.452 39.2405 113.618 40.1104C112.784 40.9346 111.627 41.3467 110.191 41.3467C107.968 41.3467 106.625 40.4767 104.912 38.2331L101.67 41.3009L101.763 41.4382C102.458 42.3998 103.523 43.3613 104.958 44.277C106.394 45.1928 108.154 45.6506 110.284 45.6506C113.109 45.6506 115.424 44.7807 117.091 43.0866C118.805 41.3924 119.638 39.1031 119.638 36.2643V19.2315H114.961V20.7883H114.915ZM113.664 31.8687C112.831 32.7845 111.766 33.2423 110.376 33.2423C108.987 33.2423 107.922 32.7845 107.135 31.8687C106.301 30.953 105.884 29.7167 105.884 28.2058C105.884 26.6948 106.301 25.4127 107.135 24.497C107.968 23.5813 109.033 23.0776 110.376 23.0776C111.766 23.0776 112.831 23.5355 113.664 24.497C114.498 25.4127 114.915 26.6948 114.915 28.2058C114.915 29.7167 114.452 30.953 113.664 31.8687Z" fill="#0080FF"/>
<path d="M128.437 19.2315H123.667V38.0042H128.437V19.2315Z" fill="#0080FF"/>
<path d="M126.121 11.0356C125.288 11.0356 124.593 11.3103 124.037 11.8598C123.482 12.4092 123.157 13.096 123.157 13.8744C123.157 14.6986 123.435 15.3854 124.037 15.9348C124.593 16.4843 125.288 16.8048 126.121 16.8048C126.955 16.8048 127.649 16.5301 128.205 15.9348C128.761 15.3854 129.085 14.6528 129.085 13.8744C129.085 13.0502 128.807 12.3634 128.205 11.8598C127.649 11.3103 126.908 11.0356 126.121 11.0356Z" fill="#0080FF"/>
<path d="M138.902 14.1949H134.225V19.2773H131.493V23.5813H134.225V31.3651C134.225 33.7918 134.735 35.5317 135.707 36.539C136.68 37.5463 138.393 38.05 140.847 38.05C141.635 38.05 142.422 38.0042 143.163 37.9584H143.394V33.6544L141.774 33.746C140.616 33.746 139.875 33.5629 139.504 33.1508C139.134 32.7387 138.949 31.9145 138.949 30.6783V23.5355H143.394V19.2315H138.949V14.1949H138.902Z" fill="#0080FF"/>
<path d="M170.485 11.3561H165.715V37.9584H170.485V11.3561Z" fill="#0080FF"/>
<path d="M218.692 31.2735C217.859 32.235 216.979 33.0592 216.284 33.4713C215.636 33.8834 214.802 34.1123 213.83 34.1123C212.441 34.1123 211.283 33.6086 210.357 32.5555C209.431 31.5024 208.967 30.1746 208.967 28.5721C208.967 26.9695 209.431 25.6417 210.31 24.6344C211.237 23.5813 212.348 23.0776 213.737 23.0776C215.265 23.0776 216.886 24.0391 218.275 25.6417L221.424 22.6655C219.387 20.0099 216.747 18.7736 213.598 18.7736C210.959 18.7736 208.69 19.7352 206.837 21.5666C204.985 23.3981 204.059 25.779 204.059 28.5721C204.059 31.3651 204.985 33.7002 206.837 35.5775C208.69 37.4548 210.959 38.3705 213.598 38.3705C217.071 38.3705 219.85 36.9053 221.702 34.2039L218.692 31.2735Z" fill="#0080FF"/>
<path d="M238.281 21.8414C237.586 20.9256 236.66 20.1472 235.549 19.5978C234.391 19.0483 233.094 18.7736 231.612 18.7736C228.926 18.7736 226.75 19.7351 225.129 21.6582C223.555 23.5813 222.721 25.9164 222.721 28.7094C222.721 31.5482 223.601 33.8834 225.361 35.7148C227.074 37.5005 229.436 38.4163 232.261 38.4163C235.456 38.4163 238.142 37.1343 240.087 34.5702L240.179 34.4328L237.077 31.4566C236.799 31.8229 236.382 32.1892 236.012 32.5555C235.549 33.0134 235.085 33.3339 234.622 33.5629C233.928 33.9292 233.094 34.0665 232.214 34.0665C230.871 34.0665 229.806 33.7002 228.973 32.9218C228.185 32.235 227.722 31.2735 227.63 30.083H240.272L240.318 28.3431C240.318 27.1069 240.133 25.9622 239.809 24.8633C239.485 23.8102 238.975 22.8029 238.281 21.8414ZM227.861 26.2827C228.093 25.367 228.51 24.6344 229.112 24.0391C229.76 23.3981 230.594 23.0776 231.612 23.0776C232.77 23.0776 233.65 23.3981 234.252 24.0391C234.808 24.6344 235.132 25.367 235.224 26.2369H227.861V26.2827Z" fill="#0080FF"/>
<path d="M256.619 20.6509C255.183 19.4147 253.192 18.8194 250.692 18.8194C249.117 18.8194 247.635 19.1857 246.292 19.8267C245.042 20.4678 243.838 21.4751 243.051 22.8487L243.097 22.8945L246.153 25.7791C247.404 23.8102 248.793 23.1234 250.645 23.1234C251.664 23.1234 252.451 23.3981 253.1 23.9018C253.748 24.4055 254.026 25.0923 254.026 25.9164V26.8322C252.822 26.4659 251.664 26.2827 250.506 26.2827C248.145 26.2827 246.2 26.8322 244.764 27.9311C243.328 29.0299 242.588 30.6325 242.588 32.6013C242.588 34.3413 243.19 35.8064 244.44 36.8595C245.69 37.8669 247.218 38.4163 249.024 38.4163C250.83 38.4163 252.544 37.6837 254.072 36.4475V38.0042H258.749V25.9164C258.842 23.6729 258.101 21.8872 256.619 20.6509ZM248.145 30.8156C248.7 30.4493 249.441 30.2662 250.414 30.2662C251.571 30.2662 252.775 30.4951 254.026 30.953V32.7845C253.007 33.746 251.618 34.2039 249.904 34.2039C249.071 34.2039 248.422 34.0207 248.006 33.6544C247.589 33.2882 247.357 32.8761 247.357 32.2808C247.357 31.6856 247.635 31.1819 248.145 30.8156Z" fill="#0080FF"/>
<path d="M277.18 21.0172C275.837 19.552 273.985 18.8194 271.623 18.8194C269.724 18.8194 268.196 19.3689 267.038 20.422V19.2773H262.361V38.05H267.131V27.6563C267.131 26.2369 267.455 25.0923 268.15 24.3139C268.845 23.4897 269.724 23.1234 270.975 23.1234C272.04 23.1234 272.873 23.4897 273.475 24.1765C274.077 24.9091 274.402 25.8706 274.402 27.1069V37.9584H279.171V27.1069C279.171 24.5428 278.523 22.4824 277.18 21.0172Z" fill="#0080FF"/>
<path d="M159.741 20.6509C158.306 19.4147 156.315 18.8194 153.814 18.8194C152.239 18.8194 150.757 19.1857 149.415 19.8267C148.164 20.4678 146.96 21.4751 146.173 22.8487L146.219 22.8945L149.276 25.7791C150.526 23.8102 151.915 23.1234 153.768 23.1234C154.786 23.1234 155.574 23.3981 156.222 23.9018C156.87 24.4055 157.148 25.0923 157.148 25.9164V26.8322C155.944 26.4659 154.786 26.2827 153.629 26.2827C151.267 26.2827 149.322 26.8322 147.886 27.9311C146.451 29.0299 145.71 30.6325 145.71 32.6013C145.71 34.3413 146.312 35.8064 147.562 36.8595C148.813 37.8669 150.341 38.4163 152.147 38.4163C153.953 38.4163 155.666 37.6837 157.194 36.4475V38.0042H161.872V25.9164C161.918 23.6729 161.177 21.8872 159.741 20.6509ZM151.267 30.8156C151.823 30.4493 152.564 30.2662 153.536 30.2662C154.694 30.2662 155.898 30.4951 157.148 30.953V32.7845C156.129 33.746 154.74 34.2039 153.027 34.2039C152.193 34.2039 151.545 34.0207 151.128 33.6544C150.711 33.2882 150.48 32.8761 150.48 32.2808C150.48 31.6856 150.711 31.1819 151.267 30.8156Z" fill="#0080FF"/>
<path d="M187.804 38.3705C180.164 38.3705 173.912 32.235 173.912 24.6344C173.912 17.0337 180.117 10.8983 187.804 10.8983C195.445 10.8983 201.697 17.0337 201.697 24.6344C201.697 32.235 195.445 38.3705 187.804 38.3705ZM187.804 15.7975C182.849 15.7975 178.821 19.781 178.821 24.6802C178.821 29.5794 182.849 33.5629 187.804 33.5629C192.759 33.5629 196.788 29.5794 196.788 24.6802C196.788 19.781 192.759 15.7975 187.804 15.7975Z" fill="#0080FF"/>
</g>
<defs>
<clipPath id="clip0_140_3189">
<rect width="279.241" height="47.1607" fill="white" transform="translate(0.625 0.321442)"/>
</clipPath>
</defs>
</svg>
