<svg width="195" height="40" viewBox="0 0 195 40" fill="none" xmlns="http://www.w3.org/2000/svg">
<g clip-path="url(#clip0_140_3140)">
<path d="M22.6024 7.78319L11.3012 15.0128L22.6024 22.2424L11.3012 29.472L0 22.2033L11.3012 14.9737L0 7.78319L11.3012 0.553589L22.6024 7.78319ZM11.2427 31.7972L22.5439 24.5676L33.8451 31.7972L22.5439 39.0268L11.2427 31.7972ZM22.6024 22.2033L33.9036 14.9737L22.6024 7.78319L33.8451 0.553589L45.1463 7.78319L33.8451 15.0128L45.1463 22.2424L33.8451 29.472L22.6024 22.2033Z" fill="#0061FF"/>
<path d="M54.0119 7.78321H63.1503C68.9762 7.78321 73.789 11.1635 73.789 18.8816V20.5034C73.789 28.2801 69.288 31.7777 63.3256 31.7777H54.0119V7.78321ZM59.1169 12.1405V27.4008H63.0334C66.3458 27.4008 68.5671 25.232 68.5671 20.4057V19.1356C68.5671 14.3094 66.2289 12.1405 62.858 12.1405H59.1169ZM76.4974 12.375H80.5892L81.2517 16.8886C82.0311 13.8209 84.0185 12.1796 87.6232 12.1796H88.8897V17.3576H86.7854C82.6351 17.3576 81.6219 18.8035 81.6219 22.9068V31.8363H76.5753V12.375H76.4974ZM89.9029 22.4964V21.9493C89.9029 15.4427 94.0532 11.8865 99.7038 11.8865C105.471 11.8865 109.505 15.4427 109.505 21.9493V22.4964C109.505 28.8858 105.588 32.3248 99.7038 32.3248C93.4492 32.2662 89.9029 28.9054 89.9029 22.4964ZM104.341 22.4378V21.9493C104.341 18.3345 102.529 16.1656 99.6453 16.1656C96.82 16.1656 94.9495 18.1587 94.9495 21.9493V22.4378C94.9495 25.9354 96.7616 27.9284 99.6453 27.9284C102.529 27.8698 104.341 25.9354 104.341 22.4378ZM112.155 12.375H116.363L116.85 16.0484C117.864 13.5864 120.026 11.8865 123.222 11.8865C128.152 11.8865 131.406 15.4427 131.406 22.0275V22.5746C131.406 28.964 127.801 32.3443 123.222 32.3443C120.163 32.3443 118.058 30.957 117.026 28.7295V38.5579H112.096L112.155 12.375ZM126.281 22.4378V22.0079C126.281 18.1391 124.294 16.2243 121.644 16.2243C118.818 16.2243 116.948 18.3931 116.948 22.0079V22.3792C116.948 25.8181 118.76 27.987 121.585 27.987C124.488 27.9284 126.281 26.0722 126.281 22.4378ZM138.868 28.241L138.44 31.7972H134.114V5.86835H139.044V15.8139C140.135 13.2738 142.298 11.8865 145.357 11.8865C149.994 11.9451 153.423 15.1496 153.423 21.5976V22.2033C153.423 28.6514 150.169 32.3443 145.24 32.3443C141.986 32.2662 139.881 30.7616 138.868 28.241ZM148.24 22.2033V21.7149C148.24 18.1587 146.311 16.1656 143.603 16.1656C140.836 16.1656 138.907 18.3931 138.907 21.7735V22.2033C138.907 25.8181 140.778 27.9284 143.545 27.9284C146.506 27.9284 148.24 26.0722 148.24 22.2033ZM155.586 22.4964V21.9493C155.586 15.4427 159.737 11.8865 165.387 11.8865C171.155 11.8865 175.188 15.4427 175.188 21.9493V22.4964C175.188 28.8858 171.213 32.3248 165.387 32.3248C159.132 32.2662 155.586 28.9054 155.586 22.4964ZM170.063 22.4378V21.9493C170.063 18.3345 168.251 16.1656 165.368 16.1656C162.542 16.1656 160.672 18.1587 160.672 21.9493V22.4378C160.672 25.9354 162.484 27.9284 165.368 27.9284C168.271 27.8698 170.063 25.9354 170.063 22.4378ZM181.793 21.7149L174.993 12.375H180.819L184.736 18.2173L188.71 12.375H194.478L187.58 21.6562L194.848 31.7972H189.139L184.697 25.3492L180.371 31.7972H174.409L181.793 21.7149Z" fill="black"/>
</g>
<defs>
<clipPath id="clip0_140_3140">
<rect width="194.848" height="38.4732" fill="white" transform="translate(0 0.553589)"/>
</clipPath>
</defs>
</svg>
