<svg width="42" height="26" viewBox="0 0 42 26" fill="none" xmlns="http://www.w3.org/2000/svg">
<path d="M15.5811 2.70972H27.0972V23.0323H15.5811V2.70972Z" fill="#FF5F00"/>
<path d="M16.0568 12.871C16.0568 8.75947 18.0052 5.11262 21 2.75289C18.7991 1.03679 16.0208 0 12.9899 0C5.80922 0 0 5.7561 0 12.871C0 19.9857 5.80922 25.7419 12.9897 25.7419C16.0207 25.7419 18.799 24.7051 21 22.9889C18.0052 20.665 16.0568 16.9825 16.0568 12.871Z" fill="#EB001B"/>
<path d="M41.9998 12.871C41.9998 19.9857 36.1907 25.7419 29.0102 25.7419C25.9793 25.7419 23.201 24.7051 21 22.9889C24.0309 20.6293 25.9433 16.9825 25.9433 12.871C25.9433 8.75947 23.9947 5.11262 21 2.75289C23.2009 1.03679 25.9793 0 29.0102 0C36.1907 0 41.9998 5.79193 41.9998 12.871Z" fill="#F79E1B"/>
</svg>
