<svg width="232" height="51" viewBox="0 0 232 51" fill="none" xmlns="http://www.w3.org/2000/svg">
<path d="M16.9198 10.0938C13.9161 10.0938 10.9799 11.0036 8.48244 12.7082C5.98499 14.4129 4.03846 16.8357 2.889 19.6704C1.73955 22.5051 1.4388 25.6244 2.02479 28.6337C2.61077 31.643 4.05718 34.4072 6.18109 36.5768C8.305 38.7464 11.011 40.2239 13.957 40.8225C16.9029 41.421 19.9565 41.1138 22.7315 39.9396C25.5065 38.7655 27.8784 36.7771 29.5471 34.2259C31.2159 31.6748 32.1066 28.6754 32.1066 25.6071C32.1066 21.4927 30.5065 17.5468 27.6585 14.6375C24.8104 11.7282 20.9476 10.0938 16.9198 10.0938ZM16.9198 30.2612C16.0187 30.2612 15.1378 29.9882 14.3886 29.4768C13.6393 28.9654 13.0554 28.2386 12.7105 27.3882C12.3657 26.5377 12.2755 25.602 12.4513 24.6992C12.6271 23.7964 13.061 22.9671 13.6982 22.3163C14.3353 21.6654 15.1471 21.2221 16.0309 21.0426C16.9147 20.863 17.8308 20.9551 18.6633 21.3074C19.4958 21.6596 20.2074 22.2562 20.708 23.0215C21.2086 23.7869 21.4758 24.6867 21.4758 25.6071C21.4766 26.2185 21.3593 26.8241 21.1306 27.3891C20.902 27.9541 20.5664 28.4675 20.1432 28.8999C19.7199 29.3322 19.2174 29.675 18.6642 29.9086C18.1111 30.1422 17.5183 30.262 16.9198 30.2612Z" fill="#00AEEF"/>
<path d="M33.9897 21.7288C37.8484 22.8631 42.4032 21.7288 42.4032 21.7288C41.0813 27.6239 36.8898 31.3161 30.8454 31.7653C29.6734 34.5444 27.7297 36.9116 25.2547 38.5743C22.7797 40.2369 19.882 41.1222 16.9197 41.1205L21.4758 26.3282C26.1594 11.1238 28.5601 10.0938 39.6671 10.0938H47.2933C46.0176 15.8337 41.6208 20.2184 33.9897 21.7288Z" fill="#008CCF"/>
<path d="M75.3804 10.466C66.8941 10.466 62.6624 16.8625 62.6624 25.586C62.6624 34.41 66.8297 40.7482 75.3804 40.7482C83.8705 40.7482 88.1374 34.4187 88.1374 25.5922C88.1398 16.7136 84.0454 10.466 75.3804 10.466ZM75.3804 35.7417C70.5207 35.7417 69.6702 30.5515 69.6702 25.5823C69.6702 20.5758 70.4733 15.4638 75.3804 15.4638C80.2876 15.4638 81.1296 20.5423 81.1296 25.586C81.1296 30.6608 80.3362 35.7454 75.3804 35.7454V35.7417ZM104.384 17.2162C101.623 17.2162 99.5554 18.4139 97.7804 20.5473L97.6261 19.65C97.5437 19.1673 97.2972 18.7297 96.9301 18.4144C96.5629 18.099 96.0986 17.9261 95.619 17.9261H91.7069V38.9933C91.7067 39.1301 91.733 39.2656 91.7841 39.392C91.8353 39.5184 91.9104 39.6332 92.0051 39.73C92.0997 39.8267 92.2122 39.9034 92.3359 39.9556C92.4597 40.0079 92.5923 40.0347 92.7262 40.0346H98.1473V25.56C98.1426 25.1413 98.2653 24.7315 98.4984 24.3871C99.587 22.8259 100.721 22.0457 101.9 22.0465C103.587 22.0465 103.938 23.2938 103.938 25.0027V38.9933C103.938 39.2695 104.045 39.5343 104.236 39.7296C104.427 39.9249 104.687 40.0346 104.957 40.0346H110.378V23.8795C110.376 19.5072 108.011 17.2162 104.384 17.2162ZM122.504 35.5009C122.39 35.5221 122.274 35.5342 122.157 35.5369C121.422 35.5369 121.055 35.0794 121.056 34.1643V8.42944L115.525 9.03881C115.275 9.06635 115.044 9.18727 114.876 9.37832C114.708 9.56937 114.615 9.81708 114.615 10.0739V34.4187C114.615 38.5999 116.923 40.7482 120.568 40.7482C121.908 40.7694 123.238 40.5162 124.481 40.0035L123.427 36.1103C123.375 35.9095 123.252 35.7356 123.081 35.6228C122.911 35.5101 122.705 35.4666 122.504 35.5009ZM139.325 17.9236C139.097 17.9236 138.875 18.0021 138.695 18.1467C138.515 18.2912 138.389 18.4933 138.335 18.7204L134.283 35.8286L130.578 18.7403C130.528 18.5088 130.402 18.3017 130.221 18.1532C130.04 18.0047 129.815 17.9237 129.583 17.9236H123.553L129.727 38.5602C129.855 38.9859 130.112 39.3587 130.462 39.6241C130.812 39.8894 131.235 40.0333 131.671 40.0346H132.363C131.043 43.28 129.054 44.1636 125.392 44.6576L125.943 48.3212C125.98 48.5831 126.114 48.8204 126.318 48.9845C126.521 49.1486 126.778 49.227 127.036 49.2036C132.746 48.6191 136.525 45.8329 138.278 40.0768L145.167 17.9236H139.325Z" fill="#00AEEF"/>
<path d="M147.882 12.2197V40.0346H153.547C153.818 40.0346 154.077 39.9249 154.268 39.7296C154.459 39.5344 154.567 39.2695 154.567 38.9934V28.5857H160.763C161.14 28.5861 161.504 28.4439 161.785 28.1866C162.065 27.9293 162.243 27.575 162.283 27.192L162.647 23.717H154.57V16.0509H162.711C163.078 16.0512 163.433 15.9162 163.711 15.6707C163.989 15.4252 164.171 15.0857 164.223 14.7143L164.718 11.1785H148.902C148.631 11.1785 148.372 11.2882 148.181 11.4834C147.99 11.6787 147.882 11.9436 147.882 12.2197ZM185.315 32.6229V17.9237H181.4C180.929 17.9238 180.473 18.0904 180.108 18.3954C179.744 18.7004 179.494 19.1249 179.401 19.5967L179.363 19.7977C178.003 18.0776 176.731 17.2163 174.53 17.2163C168.591 17.2163 165.521 22.6472 165.521 28.9171C165.521 35.1647 167.776 40.742 173.877 40.742C176.51 40.742 178.27 39.3545 179.689 37.37C180.287 38.523 181.194 39.2912 182.268 39.8249C182.62 39.9976 183.003 40.0947 183.393 40.1103C183.784 40.1258 184.173 40.0594 184.538 39.9152C184.902 39.771 185.233 39.552 185.512 39.2718C185.79 38.9916 186.009 38.656 186.155 38.2859L187.06 35.9962C185.615 35.2503 185.315 34.3207 185.315 32.6229ZM178.493 34.0849C177.665 35.3037 176.947 35.913 175.672 35.913C172.572 35.913 172.205 32.1364 172.205 28.963C172.205 25.7896 172.85 22.013 175.956 22.013C176.913 22.013 177.47 22.3022 178.321 23.2193C178.676 23.6042 178.874 24.113 178.873 24.6416V32.8823C178.868 33.3132 178.735 33.7324 178.493 34.0849ZM199.197 18.049C198.124 18.605 197.125 19.4378 196.2 20.5473L196.047 19.6475C195.965 19.1647 195.718 18.7272 195.351 18.4118C194.983 18.0965 194.519 17.9237 194.039 17.9237H190.127V38.9934C190.127 39.2695 190.234 39.5344 190.426 39.7296C190.617 39.9249 190.876 40.0346 191.146 40.0346H196.567V25.56C196.563 25.1414 196.685 24.7316 196.919 24.3872C198.007 22.8259 199.141 22.0457 200.32 22.0465C202.007 22.0465 202.359 23.2938 202.359 25.0028V38.9934C202.359 39.2695 202.466 39.5344 202.658 39.7296C202.849 39.9249 203.108 40.0346 203.378 40.0346H208.799V23.8784C208.797 17.1915 203.071 16.0509 199.197 18.049ZM220.157 25.4185C219.253 25.0177 218.658 24.6565 218.611 23.7096C218.569 22.8507 219.241 22.1086 220.077 21.9969C221.994 21.7412 223.895 22.1309 225.781 23.166C226.003 23.282 226.261 23.3088 226.502 23.2414C226.743 23.1739 226.951 23.0169 227.084 22.8011L228.921 19.9231C226.688 18.0614 223.83 17.2163 220.972 17.2163C216.434 17.2163 212.126 19.5172 212.126 23.9615C212.126 30.0428 218.778 30.7042 221.502 31.8522C222.562 32.3003 223.062 32.7458 223.091 33.8528C223.097 34.3443 222.932 34.822 222.624 35.1998C222.316 35.5776 221.886 35.8305 221.412 35.913C219.12 36.2978 216.947 35.7864 214.891 34.3791C214.689 34.2464 214.446 34.1926 214.208 34.2274C213.97 34.2623 213.753 34.3835 213.595 34.5689L211.068 37.452C213.472 39.7281 216.864 40.7482 220.119 40.7482C225.009 40.7482 229.739 38.4026 229.739 33.4619C229.737 27.3323 223.994 27.1238 220.157 25.4185Z" fill="#008CCF"/>
</svg>
