<svg width="191" height="48" viewBox="0 0 191 48" fill="none" xmlns="http://www.w3.org/2000/svg">
<g clip-path="url(#clip0_140_3075)">
<path d="M136.371 18.6549C133.595 18.6549 131.571 19.6421 130.588 21.4425L130.068 22.4297V19.1195H125.5V39.1552H130.299V27.2499C130.299 24.4043 131.86 22.7782 134.52 22.7782C137.065 22.7782 138.568 24.3462 138.568 27.1338V39.1552H143.367V26.2627C143.367 21.5005 140.765 18.6549 136.371 18.6549ZM113.125 18.6549C107.459 18.6549 103.989 22.1974 103.989 27.8888V30.6763C103.989 36.1934 107.516 39.5618 113.241 39.5618C117.057 39.5618 119.717 38.168 121.394 35.2642L118.445 33.522C117.173 35.2062 115.207 36.1934 113.241 36.1934C110.35 36.1934 108.615 34.3931 108.615 31.3732V30.5602H121.972V27.2499C121.972 22.0813 118.503 18.6549 113.125 18.6549ZM117.636 27.4822H108.615V27.0176C108.615 23.7074 110.234 21.9071 113.125 21.9071C115.959 21.9071 117.636 23.7074 117.636 26.7273V27.4822ZM190.957 15.8673V12.0344H174.361V15.8673H180.202V35.3223H174.361V39.1552H190.957V35.3223H185.117V15.8673H190.957ZM65.1889 11.4536C57.7873 11.4536 53.1614 16.0996 53.1614 23.5331V27.5984C53.1614 35.09 57.7873 39.6779 65.1889 39.6779C72.5904 39.6779 77.2163 35.0319 77.2163 27.5984V23.5331C77.2163 16.0996 72.5904 11.4536 65.1889 11.4536ZM72.2434 27.8888C72.2434 32.8251 69.6992 35.6708 65.1889 35.6708C60.6785 35.6708 58.1343 32.8832 58.1343 27.8888V23.3008C58.1343 18.3645 60.7364 15.5188 65.1889 15.5188C69.6413 15.5188 72.2434 18.3645 72.2434 23.3008V27.8888ZM92.3085 18.6549C89.7642 18.6549 87.6247 19.7002 86.4682 21.4425L85.9478 22.2555V19.1195H81.3797V46.0081H86.1791V36.3096L86.6995 37.0646C87.7982 38.6906 89.8799 39.6198 92.3663 39.6198C96.5297 39.6198 100.693 36.8903 100.693 30.8506V27.4242C100.635 23.0686 98.0331 18.6549 92.3085 18.6549ZM95.8358 30.6183C95.8358 33.8704 93.9854 35.845 90.9207 35.845C88.0873 35.845 86.1213 33.7543 86.1213 30.6763V27.6565C86.1213 24.5785 88.0873 22.4297 90.9207 22.4297C93.9276 22.4297 95.778 24.4043 95.778 27.6565L95.8358 30.6183ZM156.609 12.0344L146.953 39.1552H151.81L153.66 33.3478H164.762V33.4058L166.613 39.1552H171.47L161.756 12.0344H156.609ZM154.875 29.5148L159.269 15.8092L163.606 29.5148H154.875Z" fill="black"/>
<path d="M43.7939 19.584C44.8347 16.3899 44.4878 12.8474 42.8109 9.94365C40.2666 5.4719 35.1202 3.20699 30.0895 4.25233C27.8922 1.75512 24.654 0.361328 21.3002 0.361328C16.1538 0.361328 11.6435 3.67159 10.0244 8.54986C6.72845 9.24676 3.89506 11.2794 2.21815 14.2412C-0.326126 18.7129 0.252118 24.2881 3.66376 28.121C2.62292 31.3732 3.02769 34.8577 4.7046 37.7614C7.24887 42.2332 12.3952 44.5562 17.426 43.4527C19.6811 45.95 22.8615 47.4018 26.2153 47.4018C31.3617 47.4018 35.872 44.0916 37.491 39.2133C40.787 38.5164 43.6204 36.4838 45.2973 33.522C47.8416 29.0502 47.2634 23.417 43.7939 19.584ZM26.2153 44.3239C24.1336 44.3239 22.1676 43.627 20.6063 42.2913C20.6641 42.2332 20.8376 42.1751 20.8954 42.117L30.2052 36.7161C30.6678 36.4257 30.9569 35.9611 30.9569 35.3804V22.1974L34.8889 24.4623C34.9468 24.4623 34.9468 24.5204 34.9468 24.5785V35.4965C35.0046 40.3748 31.0725 44.3239 26.2153 44.3239ZM7.36452 36.2515C6.32368 34.4512 5.97674 32.3605 6.32368 30.3279C6.38151 30.3859 6.49716 30.444 6.6128 30.5021L15.9225 35.903C16.3851 36.1934 16.9634 36.1934 17.426 35.903L28.8174 29.2825V33.8704C28.8174 33.9285 28.8174 33.9866 28.7596 33.9866L19.3342 39.4456C15.1708 41.8847 9.79315 40.4329 7.36452 36.2515ZM4.9359 15.8092C5.97674 14.0089 7.59582 12.6732 9.50403 11.9182V23.0685C9.50403 23.5912 9.79315 24.1139 10.2557 24.4043L21.6472 31.0248L17.7151 33.2897C17.6573 33.2897 17.5994 33.3478 17.5994 33.2897L8.17406 27.8307C3.89506 25.3915 2.50727 19.9906 4.9359 15.8092ZM37.3176 23.3589L25.9262 16.7384L29.8582 14.4735C29.916 14.4735 29.9739 14.4154 29.9739 14.4735L39.3993 19.9325C43.6204 22.3716 45.0082 27.7726 42.5796 31.954C41.5388 33.7543 39.9197 35.09 38.0115 35.7869V24.6946C38.0693 24.172 37.7802 23.6493 37.3176 23.3589ZM41.1918 17.4353C41.134 17.3772 41.0183 17.3191 40.9027 17.2611L31.593 11.8601C31.1304 11.5697 30.5521 11.5697 30.0895 11.8601L18.6981 18.4806V13.8927C18.6981 13.8347 18.6981 13.7766 18.7559 13.7766L28.1813 8.31756C32.4025 5.87842 37.7223 7.33029 40.151 11.5697C41.1918 13.312 41.5388 15.4027 41.1918 17.4353ZM16.5586 25.5657L12.6265 23.3008C12.5687 23.3008 12.5687 23.2428 12.5687 23.1847V12.2666C12.5687 7.38837 16.5008 3.43929 21.358 3.43929C23.4397 3.43929 25.4057 4.13618 26.967 5.4719C26.9092 5.52998 26.7935 5.58805 26.6779 5.64612L17.3681 11.0471C16.9056 11.3374 16.6164 11.802 16.6164 12.3828V25.5657H16.5586ZM18.6981 20.9198L23.7867 17.958L28.8752 20.9198V26.7853L23.7867 29.7471L18.6981 26.7853V20.9198Z" fill="black"/>
</g>
<defs>
<clipPath id="clip0_140_3075">
<rect width="190.3" height="47.0405" fill="white" transform="translate(0.656738 0.361328)"/>
</clipPath>
</defs>
</svg>
