<svg width="188" height="27" viewBox="0 0 188 27" fill="none" xmlns="http://www.w3.org/2000/svg">
<g clip-path="url(#clip0_140_3094)">
<path d="M13.6948 10.097C13.6948 7.79505 12.1375 5.81192 9.73138 5.81192H5.80373V14.3808H9.73138C12.1375 14.3808 13.6948 12.3989 13.6948 10.097ZM0.0714111 1.13795H10.4387C15.9238 1.13795 19.4628 5.28143 19.4628 10.097C19.4628 14.9125 15.9238 19.0547 10.4387 19.0547H5.80373V25.9249H0.0714111V1.13795Z" fill="#FF424D"/>
<path d="M36.0581 8.21973L33.0148 18.4183H39.03L36.0581 8.21973ZM41.4016 25.9249L40.4472 22.9151H31.6359L30.6801 25.9249H24.5579L33.4047 1.13795H38.677L47.6297 25.9249H41.4016Z" fill="#FF424D"/>
<path d="M57.2541 6.09509H51.6646V1.13795H68.6129V6.09509H62.9863V25.9249H57.2541V6.09509Z" fill="#FF424D"/>
<path d="M91.1536 10.097C91.1536 7.79505 89.5962 5.81192 87.1898 5.81192H83.2619V14.3808H87.1898C89.5962 14.3808 91.1536 12.3989 91.1536 10.097ZM77.5302 1.13795H87.9342C93.4181 1.13795 96.957 5.28143 96.957 10.097C96.957 13.5671 95.1166 16.647 92.0376 18.0995L96.9928 25.9249H90.3405L85.9512 19.0547H83.2619V25.9249H77.5302V1.13795Z" fill="#FF424D"/>
<path d="M112.421 5.74175V11.371H121.798V15.869H112.421V21.3209H121.798V25.9249H106.688V1.13795H121.798V5.74175H112.421Z" fill="#FF424D"/>
<path d="M151.486 13.5314C151.486 9.4593 148.726 5.6704 144.232 5.6704C139.703 5.6704 136.978 9.4593 136.978 13.5314C136.978 17.6034 139.703 21.3924 144.232 21.3924C148.726 21.3924 151.486 17.6034 151.486 13.5314ZM131.103 13.5314C131.103 6.73269 135.987 0.500265 144.232 0.500265C152.441 0.500265 157.324 6.73269 157.324 13.5314C157.324 20.3301 152.441 26.5625 144.232 26.5625C135.987 26.5625 131.103 20.3301 131.103 13.5314Z" fill="#FF424D"/>
<path d="M181.776 17.2846V1.13795H187.473V25.9249H181.494L172.575 9.98986V25.9249H166.843V1.13795H172.822L181.776 17.2846Z" fill="#FF424D"/>
</g>
<defs>
<clipPath id="clip0_140_3094">
<rect width="187.402" height="26.0625" fill="white" transform="translate(0.0714111 0.499969)"/>
</clipPath>
</defs>
</svg>
