<svg width="208" height="56" viewBox="0 0 208 56" fill="none" xmlns="http://www.w3.org/2000/svg">
<path d="M199.964 11.4886L194.973 42.4875C194.954 42.6014 194.961 42.7178 194.992 42.8288C195.024 42.9398 195.08 43.0426 195.156 43.13C195.232 43.2175 195.327 43.2873 195.433 43.3348C195.539 43.3823 195.655 43.4062 195.771 43.4049H201.679C201.887 43.4067 202.089 43.3346 202.249 43.2017C202.408 43.0689 202.514 42.884 202.547 42.6806L207.539 11.6817C207.558 11.5678 207.551 11.4514 207.519 11.3404C207.488 11.2294 207.432 11.1266 207.356 11.0392C207.28 10.9518 207.185 10.8819 207.079 10.8344C206.972 10.7869 206.857 10.763 206.74 10.7643H200.833C200.624 10.7602 200.42 10.8314 200.261 10.9647C200.101 11.098 199.995 11.2842 199.964 11.4886ZM193.656 20.5348H188.051C187.843 20.5328 187.641 20.6047 187.482 20.7374C187.323 20.87 187.217 21.0548 187.184 21.2579L186.999 22.3992C186.999 22.3992 182.645 17.7334 174.937 20.8865C170.515 22.6918 168.393 26.4218 167.49 29.1543C167.49 29.1543 164.623 37.459 171.106 42.03C171.106 42.03 177.118 46.4265 183.888 41.7595L183.771 42.4875C183.744 42.6585 183.774 42.8336 183.858 42.986C183.941 43.1384 184.072 43.2596 184.231 43.3312C184.337 43.3803 184.453 43.4049 184.57 43.4049H190.179C190.388 43.409 190.591 43.3378 190.751 43.2045C190.911 43.0712 191.016 42.885 191.047 42.6806L194.459 21.4522C194.478 21.3385 194.471 21.2221 194.439 21.1112C194.407 21.0004 194.35 20.8981 194.273 20.8115C194.197 20.7234 194.103 20.6528 193.996 20.6047C193.889 20.5567 193.773 20.5336 193.656 20.5348ZM185.408 32.2669C185.19 33.7501 184.431 35.1034 183.275 36.073C182.113 37.0462 180.635 37.5716 179.113 37.5524C178.516 37.5593 177.921 37.4738 177.351 37.2991C174.931 36.5366 173.55 34.2566 173.947 31.7848C174.167 30.3023 174.927 28.9501 176.083 27.9811C177.244 27.0074 178.721 26.4804 180.243 26.4968C180.84 26.4907 181.434 26.577 182.004 26.7526C184.439 27.5101 185.814 29.7938 185.415 32.2681H185.408V32.2669ZM155.478 32.8535C158.518 32.8535 161.458 31.786 163.767 29.8454C166.071 27.9114 167.597 25.2242 168.067 22.2725C169.049 16.1322 164.16 10.7729 157.23 10.7729H146.066C145.857 10.7709 145.655 10.8429 145.496 10.9759C145.337 11.1088 145.231 11.2938 145.199 11.4972L140.206 42.4961C140.178 42.6672 140.209 42.8422 140.292 42.9946C140.375 43.147 140.506 43.2682 140.666 43.3398C140.773 43.389 140.887 43.4135 141.004 43.4135H146.916C147.124 43.4155 147.326 43.3435 147.485 43.2105C147.644 43.0776 147.75 42.8926 147.783 42.6892L149.248 33.5864C149.279 33.3818 149.384 33.1953 149.544 33.0618C149.704 32.9282 149.908 32.8568 150.117 32.8609L155.478 32.8535ZM160.423 21.9933C160.058 24.2635 158.269 25.9348 154.846 25.9348H150.47L151.799 17.6793H156.096C159.635 17.6854 160.787 19.733 160.423 21.9995V21.9933Z" fill="#0070E0"/>
<path d="M134.259 21.161L127.577 32.4777L124.186 21.2443C124.133 21.065 124.024 20.9081 123.875 20.7971C123.726 20.6861 123.545 20.6272 123.36 20.6291H117.33C117.174 20.6269 117.022 20.6819 116.903 20.7837C116.784 20.8856 116.706 21.0276 116.682 21.1834C116.667 21.2867 116.678 21.3921 116.713 21.4904L122.789 40.4124L117.293 49.329C117.246 49.4024 117.215 49.4847 117.201 49.5707C117.187 49.6568 117.19 49.7449 117.211 49.8296C117.232 49.9143 117.269 49.9938 117.321 50.0633C117.374 50.1328 117.439 50.1909 117.514 50.2338C117.615 50.2922 117.729 50.3223 117.845 50.3208H124.34C124.525 50.3215 124.707 50.2738 124.869 50.1823C125.031 50.0909 125.167 49.9588 125.263 49.7988L142.236 21.6259C142.298 21.5278 142.332 21.4145 142.334 21.2984C142.336 21.1823 142.307 21.0677 142.25 20.9671C142.193 20.8662 142.11 20.7826 142.009 20.7252C141.909 20.6677 141.796 20.6384 141.681 20.6403H135.188C135.002 20.6385 134.819 20.6856 134.656 20.7769C134.493 20.8681 134.356 21.0005 134.259 21.161ZM113.912 20.6291H108.367C108.161 20.6271 107.961 20.7 107.804 20.8346C107.646 20.9692 107.542 21.1565 107.509 21.3624L107.33 22.5146C107.33 22.5146 103.024 17.799 95.4064 20.9858C91.0377 22.8104 88.9388 26.5801 88.0498 29.3418C88.0498 29.3418 85.2144 37.7352 91.6205 42.3551C91.6205 42.3551 97.5631 46.7984 104.253 42.0816L104.138 42.8174C104.11 42.9903 104.14 43.1674 104.223 43.3215C104.305 43.4756 104.435 43.598 104.593 43.67C104.697 43.7198 104.811 43.7446 104.927 43.7446H110.47C110.676 43.7461 110.875 43.6731 111.033 43.5388C111.19 43.4046 111.294 43.2179 111.327 43.0126L114.7 21.5575C114.727 21.3844 114.698 21.207 114.615 21.0527C114.533 20.8984 114.403 20.7757 114.245 20.7037C114.14 20.6548 114.027 20.6294 113.912 20.6291ZM105.76 32.4889C105.541 33.9861 104.791 35.3517 103.65 36.3307C102.502 37.3141 101.043 37.8463 99.539 37.8296C98.9498 37.8363 98.3632 37.7499 97.8004 37.5736C95.4101 36.803 94.0465 34.4987 94.4387 31.9992C94.6572 30.4976 95.4106 29.1284 96.5573 28.1487C97.7084 27.1647 99.1727 26.6345 100.68 26.6559C101.27 26.6497 101.859 26.7367 102.422 26.9144C104.804 27.6801 106.16 29.9869 105.767 32.4889H105.76ZM76.1818 33.0805C79.1806 33.0789 82.0813 32.0001 84.366 30.0366C86.6412 28.082 88.1473 25.3671 88.6105 22.3853C89.5819 16.1807 84.7496 10.7641 77.9033 10.7641H66.869C66.6631 10.7621 66.4633 10.8346 66.3058 10.9687C66.1483 11.1028 66.0436 11.2895 66.0107 11.495L61.0924 42.8162C61.0649 42.9893 61.0946 43.1667 61.1768 43.321C61.259 43.4753 61.3892 43.598 61.5473 43.67C61.6518 43.7185 61.7662 43.7446 61.8818 43.7446H67.7198C67.9261 43.7466 68.1262 43.6737 68.2837 43.5391C68.4412 43.4045 68.5457 43.2172 68.5781 43.0113L70.0241 33.8113C70.0548 33.6048 70.1588 33.4166 70.3168 33.2818C70.4747 33.1471 70.6757 33.0751 70.8823 33.0793L76.1818 33.0805ZM81.0682 22.1032C80.7079 24.3976 78.941 26.0867 75.5584 26.0867H71.234L72.5447 17.7431H76.7917C80.2899 17.7493 81.4272 19.8199 81.0682 22.1094V22.1032Z" fill="#003087"/>
<path d="M37.7228 12.0935C37.8552 5.29135 32.1729 0.0730593 24.3591 0.0730593H8.19703C7.8204 0.0728843 7.45609 0.205508 7.16971 0.447039C6.88334 0.688571 6.69373 1.02313 6.63503 1.39046L0.159298 41.344C0.130325 41.5251 0.141435 41.7102 0.191864 41.8866C0.242292 42.063 0.330842 42.2265 0.451415 42.3659C0.571988 42.5052 0.721721 42.6172 0.890303 42.6939C1.05889 42.7707 1.24231 42.8105 1.42796 42.8105H11.0029L9.50654 52.0617C9.47757 52.2427 9.48868 52.4278 9.5391 52.6042C9.58953 52.7806 9.67808 52.9442 9.79866 53.0835C9.91923 53.2229 10.069 53.3348 10.2375 53.4116C10.4061 53.4883 10.5896 53.5281 10.7752 53.5282H18.5753C18.9516 53.5282 19.287 53.395 19.5741 53.1542C19.8588 52.9122 19.9058 52.5786 19.9652 52.2108L22.255 38.9096C22.3132 38.543 22.5026 38.0664 22.7885 37.8244C23.0744 37.5824 23.3244 37.4505 23.7019 37.4505H28.4746C36.1274 37.4505 42.6192 32.0794 43.8062 24.61C44.6466 19.3086 42.3444 14.4851 37.7228 12.0935Z" fill="#001C64"/>
<path d="M13.5562 28.6158L11.2369 44.2936L9.78062 54.1279C9.75262 54.318 9.7636 54.5123 9.8128 54.6975C9.86199 54.8826 9.94824 55.0542 10.0656 55.2004C10.183 55.3466 10.3286 55.464 10.4926 55.5445C10.6566 55.6249 10.835 55.6665 11.0155 55.6664H19.0433C19.4092 55.6662 19.763 55.5268 20.041 55.2732C20.319 55.0196 20.503 54.6685 20.5598 54.2831L22.6756 39.9899C22.7327 39.6044 22.9169 39.2533 23.1951 38.9997C23.4733 38.7461 23.8273 38.6067 24.1933 38.6066H28.9185C36.3602 38.6066 42.6729 32.8195 43.8283 24.9767C44.6467 19.4103 42.0181 14.3444 37.524 11.8332C37.512 12.426 37.4638 13.0176 37.3784 13.604C36.2242 21.4442 29.909 27.2326 22.4698 27.2326H15.0739C14.7078 27.233 14.3538 27.3726 14.0756 27.6264C13.7974 27.8802 13.6132 28.2302 13.5562 28.6158Z" fill="#0070E0"/>
<path d="M10.8864 42.8371H1.40981C1.22668 42.8371 1.04573 42.7979 0.879448 42.7221C0.713162 42.6463 0.565491 42.5359 0.446619 42.3983C0.327746 42.2607 0.2405 42.0993 0.190896 41.9252C0.141293 41.7511 0.130512 41.5684 0.159297 41.3898L6.54864 1.37325C6.60651 1.01093 6.79342 0.680896 7.07572 0.442545C7.35802 0.204194 7.71718 0.0731738 8.08857 0.0730591H24.3746C32.084 0.0730591 37.6906 5.61396 37.5599 12.326C35.6414 11.3322 33.387 10.7641 30.9178 10.7641H17.3404C16.9688 10.7639 16.6094 10.8948 16.3268 11.1332C16.0442 11.3716 15.8572 11.7017 15.7993 12.0643L13.2421 28.1008L10.8851 42.8371H10.8864Z" fill="#003087"/>
</svg>
