<svg width="17" height="18" viewBox="0 0 17 18" fill="none" xmlns="http://www.w3.org/2000/svg">
<path id="Vector" d="M0.324169 17.5283C0.200772 17.4639 0.122818 17.3606 0.102603 17.2349C0.0823888 17.1092 0.121067 16.9681 0.212533 16.8339L5.17468 9.59806L1.63785 9.33851C1.52446 9.33283 1.42267 9.30541 1.34033 9.25835C1.25799 9.2113 1.1973 9.14587 1.16294 9.06712C1.12859 8.98838 1.12148 8.89841 1.14218 8.80416C1.16288 8.70992 1.21082 8.61391 1.28232 8.52356L7.46076 0.639408C7.56794 0.503784 7.72272 0.387698 7.89904 0.310692C8.07537 0.233686 8.26247 0.200461 8.42886 0.216612L15.7515 0.753974C15.861 0.761688 15.959 0.790025 16.0383 0.836904C16.1175 0.883783 16.1759 0.948012 16.2093 1.02487C16.2433 1.10261 16.2507 1.19131 16.2309 1.28429C16.2112 1.37727 16.1649 1.47211 16.0954 1.56166L12.4458 6.28354L15.924 6.53878C16.0614 6.54862 16.1799 6.59087 16.2661 6.66069C16.3523 6.73052 16.4027 6.82513 16.4115 6.93372C16.4145 7.03754 16.3803 7.14896 16.3124 7.25663C16.2444 7.3643 16.1451 7.46438 16.0247 7.54668L1.2985 17.369C1.19427 17.4448 1.07538 17.5052 0.951461 17.5451C0.827542 17.5851 0.702081 17.6035 0.585249 17.5988C0.488031 17.5901 0.399528 17.5662 0.324169 17.5283ZM10.0025 7.38694L14.2236 1.92455L8.40211 1.49735L3.17307 8.16847L7.50074 8.48605L3.18787 14.7626L13.8469 7.66906L10.0025 7.38694Z" fill="#353A42"/>
</svg>
