<svg width="175" height="50" viewBox="0 0 175 50" fill="none" xmlns="http://www.w3.org/2000/svg">
<path d="M26.2877 0.0803223C12.4307 0.0803223 1.07872 10.1342 0 22.9112L14.1385 28.4118C15.3365 27.6408 16.7837 27.1891 18.3407 27.1891C18.4802 27.1891 18.6192 27.1936 18.7569 27.2009L25.0444 18.6255C25.0444 18.5845 25.0438 18.5447 25.0438 18.5043C25.0438 13.3427 29.506 9.14333 34.992 9.14333C40.4775 9.14333 44.9397 13.3427 44.9397 18.5043C44.9397 23.6659 40.4775 27.8658 34.992 27.8658C34.9163 27.8658 34.8412 27.8641 34.766 27.8624L25.7987 33.8831C25.8035 33.9925 25.8077 34.1042 25.8077 34.2153C25.8077 38.0903 22.4582 41.2415 18.3407 41.2415C14.7265 41.2415 11.7044 38.8141 11.0198 35.5995L0.908775 31.6662C4.0394 42.0848 14.2118 49.7232 26.2877 49.7232C40.8567 49.7232 52.6666 38.6099 52.6666 24.9026C52.6666 11.1931 40.8561 0.0803223 26.2877 0.0803223Z" fill="#C5C3C0"/>
<path d="M16.5314 37.7429L13.291 36.4832C13.8653 37.6083 14.8587 38.5504 16.1777 39.0677C19.0293 40.1854 22.3168 38.9123 23.5052 36.2268C24.0806 34.9284 24.0842 33.4948 23.5135 32.193C22.9441 30.8907 21.8695 29.8751 20.4879 29.3331C19.117 28.7961 17.6482 28.8157 16.3578 29.2741L19.7049 30.5765C21.8081 31.4013 22.8027 33.6738 21.9262 35.6528C21.0514 37.6324 18.6345 38.5683 16.5314 37.7429Z" fill="#C5C3C0"/>
<path d="M41.6204 18.5043C41.6204 15.0653 38.6472 12.267 34.9919 12.267C31.3371 12.267 28.3633 15.0653 28.3633 18.5043C28.3633 21.9439 31.3371 24.741 34.9919 24.741C38.6472 24.7404 41.6204 21.9433 41.6204 18.5043ZM30.0234 18.4936C30.0234 15.9058 32.253 13.8084 35.0032 13.8084C37.7534 13.8084 39.983 15.9058 39.983 18.4936C39.983 21.0815 37.7534 23.1789 35.0032 23.1789C32.253 23.1789 30.0234 21.0809 30.0234 18.4936Z" fill="#C5C3C0"/>
<path d="M80.8374 17.0632L79.0699 19.9865C77.7085 19.0916 75.8636 18.5529 74.2529 18.5529C72.4121 18.5529 71.2732 19.27 71.2732 20.5544C71.2732 22.1148 73.2965 22.4779 76.3036 23.4935C79.5362 24.5691 81.3943 25.8333 81.3943 28.6192C81.3943 32.4308 78.2089 34.5714 73.6304 34.5714C71.399 34.5714 68.7073 34.0294 66.6381 32.8449L67.9273 29.6039C69.6083 30.4394 71.619 30.9349 73.4115 30.9349C75.8278 30.9349 76.9763 30.096 76.9763 28.856C76.9763 27.4369 75.2249 27.0105 72.3978 26.1295C69.176 25.1173 66.9434 23.7892 66.9434 20.7059C66.9434 17.2287 69.9029 15.2317 74.1611 15.2317C77.1289 15.2317 79.5142 16.1166 80.8374 17.0632Z" fill="#C5C3C0"/>
<path d="M94.6535 18.9112V34.2513H90.4919V18.9112H84.4513V15.5524H100.676V18.9112H94.6535Z" fill="#C5C3C0"/>
<path d="M109.449 18.9011V23.1144H117.413V26.4732H109.449V30.8617H118.689V34.2513H105.289V15.5524H118.689V18.9011H109.449Z" fill="#C5C3C0"/>
<path d="M127.979 30.6206L126.663 34.2516H122.301L129.751 15.5527H133.94L141.602 34.251H137.092L135.748 30.6201L127.979 30.6206ZM131.822 20.0129L129.109 27.4998H134.592L131.822 20.0129Z" fill="#C5C3C0"/>
<path d="M162.96 22.78L157.522 33.7065H155.173L149.823 22.8777V34.2513H145.838V15.5524H149.814L156.493 29.0504L162.934 15.5524H166.945V34.2513H162.961L162.96 22.78Z" fill="#C5C3C0"/>
<path d="M174.992 17.9111C174.992 19.5181 173.712 20.5197 172.243 20.5197C170.769 20.5197 169.487 19.5181 169.487 17.9111C169.487 16.3047 170.769 15.3098 172.243 15.3098C173.713 15.3098 174.992 16.3047 174.992 17.9111ZM169.949 17.9111C169.949 19.2555 170.978 20.1 172.243 20.1C173.504 20.1 174.529 19.2555 174.529 17.9111C174.529 16.5628 173.504 15.7312 172.243 15.7312C170.982 15.7312 169.949 16.5729 169.949 17.9111ZM172.281 16.5818C172.994 16.5818 173.234 16.9365 173.234 17.3197C173.234 17.671 173.013 17.9066 172.743 18.0267L173.382 19.1528H172.859L172.32 18.1546H171.765V19.1528H171.33V16.5818H172.281ZM171.769 17.7781H172.255C172.569 17.7781 172.754 17.5924 172.754 17.359C172.754 17.1233 172.621 16.9718 172.253 16.9718H171.769V17.7781H171.769Z" fill="#C5C3C0"/>
</svg>
