<svg width="33" height="33" viewBox="0 0 33 33" fill="none" xmlns="http://www.w3.org/2000/svg">
<g id="teenyicons:home-solid" clip-path="url(#clip0_140_865)">
<path id="Vector" d="M17.215 0.264072C17.0158 0.0936501 16.7622 0 16.5 0C16.2378 0 15.9842 0.0936501 15.785 0.264072L0 13.7941V29.7001C0 30.5753 0.347678 31.4147 0.966548 32.0335C1.58542 32.6524 2.42479 33.0001 3.3 33.0001H12.1C12.3917 33.0001 12.6715 32.8842 12.8778 32.6779C13.0841 32.4716 13.2 32.1918 13.2 31.9001V25.3001C13.2 24.4249 13.5477 23.5855 14.1665 22.9666C14.7854 22.3477 15.6248 22.0001 16.5 22.0001C17.3752 22.0001 18.2146 22.3477 18.8335 22.9666C19.4523 23.5855 19.8 24.4249 19.8 25.3001V31.9001C19.8 32.1918 19.9159 32.4716 20.1222 32.6779C20.3285 32.8842 20.6083 33.0001 20.9 33.0001H29.7C30.5752 33.0001 31.4146 32.6524 32.0335 32.0335C32.6523 31.4147 33 30.5753 33 29.7001V13.7941L17.215 0.264072Z" fill="#616161"/>
</g>
<defs>
<clipPath id="clip0_140_865">
<rect width="33" height="33" fill="white"/>
</clipPath>
</defs>
</svg>
