<svg width="35" height="35" viewBox="0 0 35 35" fill="none" xmlns="http://www.w3.org/2000/svg">
<g id="Group 92">
<path id="Vector" d="M18 10V17.3846L22 22" stroke="#616161" stroke-width="3" stroke-linecap="round" stroke-linejoin="round"/>
<path id="Vector_2" d="M3.74742 8.2934L2.40129 8.30017C2.40498 9.03833 3.00248 9.63582 3.74066 9.63954L3.74742 8.2934ZM8.30959 9.66249C9.05305 9.66623 9.65876 9.06658 9.66249 8.32313C9.66623 7.57967 9.06658 6.97396 8.32313 6.97022L8.30959 9.66249ZM5.0706 3.7177C5.06685 2.97425 4.46115 2.37458 3.7177 2.37831C2.97425 2.38206 2.37458 2.98778 2.37833 3.73122L5.0706 3.7177ZM2.69231 17.5C2.69231 16.7566 2.08961 16.1538 1.34615 16.1538C0.6027 16.1538 0 16.7566 0 17.5H2.69231ZM26.2509 32.6581C26.8945 32.2858 27.1144 31.4623 26.7422 30.8187C26.3699 30.1752 25.5464 29.9552 24.903 30.3276L26.2509 32.6581ZM30.3276 24.903C29.9552 25.5464 30.1752 26.3699 30.8187 26.7422C31.4623 27.1144 32.2858 26.8945 32.6581 26.2509L30.3276 24.903ZM5.18777 5.0638C4.65945 5.58688 4.6552 6.43921 5.17829 6.96753C5.70137 7.49585 6.55369 7.50009 7.08201 6.97701L5.18777 5.0638ZM29.8169 5.18334C22.9602 -1.67343 11.8799 -1.74286 5.06854 5.06854L6.97229 6.97229C12.7143 1.2303 22.0898 1.26366 27.9133 7.08709L29.8169 5.18334ZM5.06854 5.06854L2.79555 7.34153L4.6993 9.24528L6.97229 6.97229L5.06854 5.06854ZM3.74066 9.63954L8.30959 9.66249L8.32313 6.97022L3.75419 6.94727L3.74066 9.63954ZM5.09356 8.28664L5.0706 3.7177L2.37833 3.73122L2.40129 8.30017L5.09356 8.28664ZM17.5 2.69231C25.678 2.69231 32.3077 9.32194 32.3077 17.5H35C35 7.83501 27.165 0 17.5 0V2.69231ZM17.5 32.3077C9.32194 32.3077 2.69231 25.678 2.69231 17.5H0C0 27.165 7.83501 35 17.5 35V32.3077ZM24.903 30.3276C22.7263 31.5867 20.1993 32.3077 17.5 32.3077V35C20.6854 35 23.6756 34.1478 26.2509 32.6581L24.903 30.3276ZM32.3077 17.5C32.3077 20.1993 31.5867 22.7263 30.3276 24.903L32.6581 26.2509C34.1478 23.6756 35 20.6854 35 17.5H32.3077ZM7.08201 6.97701C9.75884 4.3267 13.4372 2.69231 17.5 2.69231V0C12.6995 0 8.34818 1.93471 5.18777 5.0638L7.08201 6.97701Z" fill="#616161"/>
</g>
</svg>
