<svg width="63" height="57" viewBox="0 0 63 57" fill="none" xmlns="http://www.w3.org/2000/svg">
<g id="Group 60">
<path id="Vector" d="M7.68945 0H55.1499V11.2956H7.68945V0ZM38.5387 32.0833V57H24.3006V32.0833H38.5387Z" fill="#00C4B0"/>
<path id="Vector_2" d="M31.4188 17.7976C14.0483 17.7976 0 21.2622 0 25.4862C0 29.7102 14.0958 33.1748 31.4188 33.1748C48.7419 33.1748 62.8376 29.7102 62.8376 25.4862C62.8376 21.2622 48.7419 17.7976 31.4188 17.7976ZM31.4188 29.6627C15.3772 29.6627 2.37302 27.2897 2.37302 24.3472C2.37302 21.4046 15.3772 19.0316 31.4188 19.0316C47.4604 19.0316 60.4646 21.4046 60.4646 24.3472C60.4646 27.2897 47.4604 29.6627 31.4188 29.6627Z" fill="#00C4B0"/>
<path id="Vector_3" d="M31.4198 27.9068C33.8878 27.9068 36.2608 27.8594 38.5389 27.717V8.30566H24.3008V27.717C26.5789 27.8119 28.9519 27.9068 31.4198 27.9068Z" fill="#00C4B0"/>
</g>
</svg>
