<svg width="65" height="22" viewBox="0 0 65 22" fill="none" xmlns="http://www.w3.org/2000/svg">
<path d="M34.3887 3.84914C37.2712 -1.08903 44.0182 -0.242886 47.0314 0.797459L46.2728 5.44434C43.9971 4.50109 41.8479 4.40399 40.8997 4.40399C38.624 4.68142 38.8136 5.99919 39.4458 7.10889C40.8997 8.28795 43.1543 9.49013 44.1236 10.2299C47.1072 12.7268 46.2939 16.2639 45.5142 17.7204C41.9237 23.2134 34.5784 21.9049 31.3545 20.564L32.1131 15.9865C35.653 17.7065 38.3501 17.3967 39.2561 17.0268C39.6986 16.8881 40.6215 16.361 40.7733 15.3623C40.925 14.3636 39.8251 13.4666 39.2561 13.1429C36.4326 12.1025 31.5062 8.78731 34.3887 3.84914Z" fill="white"/>
<path d="M10.0509 21.5352L5.43633 3.91873C9.98768 6.41555 12.6005 12.1259 13.338 14.669L18.4582 0.450908H23.8314L15.6137 21.5352H10.0509Z" fill="white"/>
<path d="M12.2634 10.8544C10.7968 4.64003 3.47672 1.32942 0 0.450908L8.6602 0.104126C10.1267 0.270581 10.6198 1.46813 10.683 2.0461L12.2634 10.8544Z" fill="white"/>
<path d="M28.003 21.3962H22.6299L26.1066 0.31189H31.2901L28.003 21.3962Z" fill="white"/>
<path d="M53.7313 2.2538L45.9561 21.5349H51.582L52.5302 18.2751H59.294L59.9894 21.5349H64.8568L60.6215 0.45054H55.8173C54.553 0.395055 53.8998 1.6296 53.7313 2.2538Z" fill="white"/>
<path d="M54.1094 13.8367L56.954 6.13818L58.5343 13.8367H54.1094Z" fill="#454545"/>
</svg>
