<svg width="1920" height="195" viewBox="0 0 1920 195" fill="none" xmlns="http://www.w3.org/2000/svg">
<path d="M-9.94 1.29999L31.37 86.08L73.22 1.29999H121.55L53.24 127.66V193H9.23V127.12L-58 1.29999H-9.94ZM210.971 194.62C196.571 194.62 183.521 191.92 171.821 186.52C160.301 180.94 150.311 173.56 141.851 164.38C133.571 155.02 127.181 144.58 122.681 133.06C118.181 121.36 115.931 109.3 115.931 96.88C115.931 84.1 118.271 71.95 122.951 60.43C127.811 48.91 134.471 38.65 142.931 29.65C151.571 20.47 161.741 13.27 173.441 8.04998C185.141 2.82999 197.921 0.219988 211.781 0.219988C226.001 0.219988 238.871 3.00999 250.391 8.58999C262.091 13.99 272.081 21.37 280.361 30.73C288.821 40.09 295.301 50.62 299.801 62.32C304.301 73.84 306.551 85.63 306.551 97.69C306.551 110.47 304.211 122.62 299.531 134.14C294.851 145.66 288.191 156.01 279.551 165.19C270.911 174.19 260.741 181.39 249.041 186.79C237.521 192.01 224.831 194.62 210.971 194.62ZM161.021 97.42C161.021 104.8 162.101 112 164.261 119.02C166.421 125.86 169.571 131.98 173.711 137.38C178.031 142.78 183.341 147.1 189.641 150.34C195.941 153.58 203.141 155.2 211.241 155.2C219.701 155.2 227.081 153.58 233.381 150.34C239.681 146.92 244.901 142.42 249.041 136.84C253.181 131.26 256.241 125.05 258.221 118.21C260.381 111.19 261.461 104.08 261.461 96.88C261.461 89.5 260.381 82.39 258.221 75.55C256.061 68.71 252.821 62.59 248.501 57.19C244.181 51.61 238.871 47.29 232.571 44.23C226.271 41.17 219.161 39.64 211.241 39.64C202.781 39.64 195.401 41.26 189.101 44.5C182.981 47.74 177.761 52.15 173.441 57.73C169.301 63.13 166.151 69.34 163.991 76.36C162.011 83.2 161.021 90.22 161.021 97.42ZM332.137 193V1.29999H418.537C427.537 1.29999 435.817 3.18999 443.377 6.97C451.117 10.57 457.777 15.52 463.357 21.82C468.937 27.94 473.257 34.87 476.317 42.61C479.557 50.35 481.177 58.18 481.177 66.1C481.177 74.02 479.917 81.58 477.397 88.78C474.877 95.8 471.277 102.19 466.597 107.95C461.917 113.53 456.337 118.12 449.857 121.72L491.977 193H443.107L406.387 131.17H376.417V193H332.137ZM376.417 92.56H416.917C420.517 92.56 423.667 91.48 426.367 89.32C429.247 86.98 431.587 83.83 433.387 79.87C435.187 75.91 436.087 71.32 436.087 66.1C436.087 60.88 435.007 56.38 432.847 52.6C430.867 48.64 428.347 45.58 425.287 43.42C422.227 41.26 418.987 40.18 415.567 40.18H376.417V92.56ZM513.016 193V1.29999H557.296V83.92L627.496 1.29999H677.176L605.356 86.89L682.036 193H631.276L577.276 116.05L557.296 136.57V193H513.016ZM696.268 193V1.29999H778.078C787.258 1.29999 795.628 3.18999 803.188 6.97C810.928 10.57 817.588 15.52 823.168 21.82C828.748 27.94 833.068 34.87 836.128 42.61C839.188 50.35 840.718 58.27 840.718 66.37C840.718 77.35 838.108 87.79 832.888 97.69C827.848 107.59 820.738 115.69 811.558 121.99C802.558 128.11 791.848 131.17 779.428 131.17H740.548V193H696.268ZM740.548 92.56H776.728C780.148 92.56 783.298 91.57 786.178 89.59C789.058 87.61 791.398 84.64 793.198 80.68C794.998 76.72 795.898 71.86 795.898 66.1C795.898 60.16 794.818 55.3 792.658 51.52C790.678 47.56 788.068 44.68 784.828 42.88C781.768 41.08 778.528 40.18 775.108 40.18H740.548V92.56ZM898.846 1.29999H946.636L1012.52 193H967.156L952.306 150.07H892.636L878.056 193H832.696L898.846 1.29999ZM945.016 119.56L922.606 45.85L899.656 119.56H945.016ZM1041.06 1.29999L1082.37 86.08L1124.22 1.29999H1172.55L1104.24 127.66V193H1060.23V127.12L992.996 1.29999H1041.06ZM1341.59 193V78.79L1300.28 161.95H1275.98L1234.67 78.79V193H1190.39V1.29999H1238.45L1288.13 101.47L1338.08 1.29999H1385.87V193H1341.59ZM1557.41 154.12V193H1422.68V1.29999H1554.98V40.18H1466.96V77.44H1542.56V113.35H1466.96V154.12H1557.41ZM1628.6 83.38V193H1584.32V1.29999H1619.42L1708.25 114.16V1.29999H1752.53V193H1716.35L1628.6 83.38ZM1935.26 40.18H1876.94V193H1832.66V40.18H1774.07V1.29999H1935.26V40.18Z" fill="#00A291" fill-opacity="0.08"/>
</svg>
