<svg width="183" height="42" viewBox="0 0 183 42" fill="none" xmlns="http://www.w3.org/2000/svg">
<path d="M57.1725 7.14018C56.5035 4.64605 54.5322 2.68151 52.0288 2.01492C47.4912 0.803448 29.2968 0.803448 29.2968 0.803448C29.2968 0.803448 11.1026 0.803448 6.56508 2.01492C4.06191 2.68151 2.09025 4.64605 1.42124 7.14018C0.205383 11.6613 0.205383 21.0938 0.205383 21.0938C0.205383 21.0938 0.205383 30.5267 1.42124 35.0476C2.09025 37.5415 4.06191 39.5062 6.56508 40.1726C11.1026 41.3844 29.2968 41.3844 29.2968 41.3844C29.2968 41.3844 47.4912 41.3844 52.0288 40.1726C54.5322 39.5062 56.5035 37.5415 57.1725 35.0476C58.3885 30.5267 58.3885 21.0938 58.3885 21.0938C58.3885 21.0938 58.3885 11.6613 57.1725 7.14018Z" fill="#ED1D24"/>
<path d="M23.4791 29.79L38.595 21.0942L23.4791 12.3982V29.79Z" fill="white"/>
<path d="M91.107 33.7413C91.4255 32.9127 91.5854 31.5584 91.5854 29.6791V21.7602C91.5854 19.9362 91.4255 18.603 91.107 17.7597C90.788 16.917 90.2262 16.4952 89.4221 16.4952C88.6453 16.4952 88.0969 16.917 87.7784 17.7597C87.4594 18.603 87.2999 19.9362 87.2999 21.7602V29.6791C87.2999 31.5584 87.4522 32.9127 87.7578 33.7413C88.0624 34.5708 88.617 34.9849 89.4221 34.9849C90.2262 34.9849 90.788 34.5708 91.107 33.7413ZM84.6581 37.7214C83.5063 36.9484 82.6878 35.7457 82.2031 34.1144C81.7175 32.4843 81.4752 30.3145 81.4752 27.6059V23.9161C81.4752 21.1801 81.752 18.9826 82.3071 17.3244C82.8617 15.6662 83.7281 14.4573 84.9077 13.697C86.0863 12.9372 87.6328 12.5569 89.5471 12.5569C91.4331 12.5569 92.9446 12.9441 94.0821 13.7177C95.2191 14.4915 96.0515 15.7011 96.5788 17.3452C97.1051 18.9898 97.369 21.1801 97.369 23.9161V27.6059C97.369 30.3145 97.1123 32.4914 96.5994 34.1355C96.086 35.78 95.2536 36.9825 94.1027 37.7421C92.9513 38.5021 91.3915 38.8823 89.4221 38.8823C87.3967 38.8823 85.8085 38.495 84.6581 37.7214Z" fill="#252323"/>
<path d="M173.759 16.9704C173.468 17.3298 173.273 17.9171 173.177 18.7321C173.079 19.5476 173.031 20.7842 173.031 22.4425V24.2667H177.233V22.4425C177.233 20.8122 177.178 19.5754 177.067 18.7321C176.956 17.8893 176.755 17.2955 176.464 16.9497C176.172 16.6041 175.722 16.4313 175.111 16.4313C174.501 16.4313 174.05 16.6114 173.759 16.9704ZM173.031 27.6664V28.9516C173.031 30.5827 173.079 31.8055 173.177 32.6205C173.273 33.436 173.474 34.0303 173.78 34.4036C174.085 34.7762 174.556 34.9632 175.195 34.9632C176.054 34.9632 176.644 34.6314 176.963 33.9678C177.282 33.3046 177.455 32.1992 177.483 30.6511L182.434 30.9415C182.462 31.1633 182.476 31.4672 182.476 31.8534C182.476 34.2031 181.831 35.9583 180.541 37.119C179.252 38.2794 177.427 38.86 175.07 38.86C172.241 38.86 170.257 37.9759 169.12 36.2066C167.982 34.4385 167.414 31.7021 167.414 27.9982V23.5619C167.414 19.7479 168.003 16.9639 169.182 15.2081C170.361 13.4533 172.379 12.5757 175.236 12.5757C177.205 12.5757 178.717 12.9351 179.771 13.6535C180.825 14.3726 181.567 15.492 181.998 17.0116C182.428 18.5319 182.643 20.6327 182.643 23.3132V27.6664H173.031Z" fill="#252323"/>
<path d="M70.6774 27.1907L64.1448 3.68395H69.845L72.1334 14.3387C72.7162 16.965 73.1458 19.2036 73.4231 21.0548H73.5898C73.7838 19.7283 74.2139 17.5037 74.8796 14.3803L77.2513 3.68395H82.9515L76.336 27.1907V38.4679H70.6774V27.1907Z" fill="#252323"/>
<path d="M115.909 13.0541V38.4676H111.415L110.916 35.3583H110.791C109.571 37.7074 107.74 38.8818 105.299 38.8818C103.607 38.8818 102.359 38.3296 101.554 37.2237C100.75 36.1189 100.348 34.3909 100.348 32.0416V13.0541H106.09V31.7098C106.09 32.8437 106.215 33.6518 106.464 34.1351C106.714 34.6192 107.13 34.8606 107.712 34.8606C108.212 34.8606 108.69 34.7091 109.148 34.4043C109.606 34.1004 109.945 33.7143 110.167 33.2441V13.0541H115.909Z" fill="#252323"/>
<path d="M145.361 13.0541V38.4676H140.867L140.367 35.3583H140.243C139.022 37.7074 137.191 38.8818 134.751 38.8818C133.058 38.8818 131.81 38.3296 131.006 37.2237C130.201 36.1189 129.799 34.3909 129.799 32.0416V13.0541H135.541V31.7098C135.541 32.8437 135.666 33.6518 135.915 34.1351C136.165 34.6192 136.581 34.8606 137.164 34.8606C137.663 34.8606 138.142 34.7091 138.599 34.4043C139.057 34.1004 139.397 33.7143 139.619 33.2441V13.0541H145.361Z" fill="#252323"/>
<path d="M131.512 8.28668H125.812V38.4679H120.195V8.28668H114.495V3.68472H131.512V8.28668Z" fill="#252323"/>
<path d="M159.102 27.4828C159.102 29.3347 159.025 30.7859 158.873 31.8357C158.721 32.8867 158.464 33.6327 158.103 34.0744C157.743 34.5168 157.257 34.7377 156.647 34.7377C156.175 34.7377 155.738 34.6277 155.337 34.4059C154.934 34.185 154.609 33.8535 154.359 33.4108V18.9838C154.553 18.2933 154.885 17.7264 155.357 17.2841C155.829 16.8425 156.341 16.6209 156.896 16.6209C157.479 16.6209 157.929 16.8491 158.249 17.3048C158.567 17.7608 158.79 18.5278 158.915 19.606C159.04 20.6836 159.102 22.2176 159.102 24.2074V27.4828ZM164.365 17.1165C164.018 15.514 163.456 14.3533 162.68 13.6341C161.903 12.9161 160.835 12.5565 159.476 12.5565C158.422 12.5565 157.438 12.8538 156.522 13.4477C155.607 14.0421 154.899 14.823 154.4 15.7903H154.358L154.359 2.39923H148.825V38.4671H153.568L154.151 36.063H154.275C154.719 36.9196 155.384 37.5968 156.272 38.0943C157.16 38.5916 158.145 38.8405 159.227 38.8405C161.168 38.8405 162.597 37.9489 163.512 36.1665C164.428 34.3835 164.885 31.5995 164.885 27.8127V23.7914C164.885 20.945 164.712 18.72 164.365 17.1165Z" fill="#252323"/>
</svg>
